<?xml version="1.0" encoding="UTF-8"?>
<svg version="1.1" xmlns="http://www.w3.org/2000/svg" width="1080" height="1080">
<path d="M0 0 C356.4 0 712.8 0 1080 0 C1080 356.4 1080 712.8 1080 1080 C723.6 1080 367.2 1080 0 1080 C0 723.6 0 367.2 0 0 Z " fill="#FEFEFE" transform="translate(0,0)"/>
<path d="M0 0 C7.92 0 15.84 0 24 0 C24 15.51 24 31.02 24 47 C38.19 47 52.38 47 67 47 C67 68.12 67 89.24 67 111 C59.08 111 51.16 111 43 111 C43 96.48 43 81.96 43 67 C28.81 67 14.62 67 0 67 C0 44.89 0 22.78 0 0 Z " fill="#2757A8" transform="translate(529,523)"/>
<path d="M0 0 C21.78 0 43.56 0 66 0 C66 7.92 66 15.84 66 24 C50.82 24 35.64 24 20 24 C20 38.19 20 52.38 20 67 C-1.45 67 -22.9 67 -45 67 C-45 59.08 -45 51.16 -45 43 C-30.15 43 -15.3 43 0 43 C0 28.81 0 14.62 0 0 Z " fill="#285AAA" transform="translate(395,442)"/>
<path d="M0 0 C7.92 0 15.84 0 24 0 C24 21.78 24 43.56 24 66 C9.81 66 -4.38 66 -19 66 C-19 80.85 -19 95.7 -19 111 C-26.92 111 -34.84 111 -43 111 C-43 89.55 -43 68.1 -43 46 C-28.81 46 -14.62 46 0 46 C0 30.82 0 15.64 0 0 Z " fill="#244A9C" transform="translate(706,443)"/>
<path d="M0 0 C7.92 0 15.84 0 24 0 C24 22.11 24 44.22 24 67 C9.81 67 -4.38 67 -19 67 C-19 81.52 -19 96.04 -19 111 C-26.92 111 -34.84 111 -43 111 C-43 89.88 -43 68.76 -43 47 C-28.81 47 -14.62 47 0 47 C0 31.49 0 15.98 0 0 Z " fill="#2755A6" transform="translate(393,355)"/>
<path d="M0 0 C7.59 0 15.18 0 23 0 C23 15.51 23 31.02 23 47 C37.19 47 51.38 47 66 47 C66 68.12 66 89.24 66 111 C58.08 111 50.16 111 42 111 C42 96.48 42 81.96 42 67 C27.81 67 13.62 67 -1 67 C-1.04010881 50.56875778 -1.04010881 50.56875778 -1.04882812 43.58789062 C-1.0548159 38.81647638 -1.06191446 34.04508125 -1.07543945 29.27368164 C-1.08627061 25.42874886 -1.09227732 21.58383655 -1.09487724 17.73888969 C-1.09673108 16.26881017 -1.10035091 14.79873182 -1.10573006 13.32866096 C-1.11294355 11.27645533 -1.11399081 9.22433533 -1.11352539 7.17211914 C-1.115746 6.00185684 -1.11796661 4.83159454 -1.12025452 3.62586975 C-1 1 -1 1 0 0 Z " fill="#244A9C" transform="translate(485,274)"/>
<path d="M0 0 C21.78 0 43.56 0 66 0 C66 14.19 66 28.38 66 43 C80.85 43 95.7 43 111 43 C111 50.92 111 58.84 111 67 C89.88 67 68.76 67 47 67 C47 52.81 47 38.62 47 24 C31.49 24 15.98 24 0 24 C0 16.08 0 8.16 0 0 Z " fill="#2451A3" transform="translate(574,527)"/>
<path d="M0 0 C7.92 0 15.84 0 24 0 C24 22.11 24 44.22 24 67 C9.81 67 -4.38 67 -19 67 C-19 81.52 -19 96.04 -19 111 C-26.59 111 -34.18 111 -42 111 C-42 89.88 -42 68.76 -42 47 C-28.14 47 -14.28 47 0 47 C0 31.49 0 15.98 0 0 Z " fill="#214497" transform="translate(661,308)"/>
<path d="M0 0 C7.59 0 15.18 0 23 0 C23 22.11 23 44.22 23 67 C9.14 67 -4.72 67 -19 67 C-19 81.52 -19 96.04 -19 111 C-26.92 111 -34.84 111 -43 111 C-43 89.88 -43 68.76 -43 47 C-28.81 47 -14.62 47 0 47 C0 31.49 0 15.98 0 0 Z " fill="#255CAD" transform="translate(436,489)"/>
<path d="M0 0 C5.94 0 11.88 0 18 0 C18 11.55 18 23.1 18 35 C27.57 35 37.14 35 47 35 C47 23.45 47 11.9 47 0 C52.94 0 58.88 0 65 0 C65 27.39 65 54.78 65 83 C59.06 83 53.12 83 47 83 C47 72.11 47 61.22 47 50 C37.43 50 27.86 50 18 50 C18 60.89 18 71.78 18 83 C12.06 83 6.12 83 0 83 C0 55.61 0 28.22 0 0 Z " fill="#343434" transform="translate(711,733)"/>
<path d="M0 0 C21.78 0 43.56 0 66 0 C66 14.19 66 28.38 66 43 C80.85 43 95.7 43 111 43 C111 50.59 111 58.18 111 66 C89.88 66 68.76 66 47 66 C47 52.14 47 38.28 47 24 C31.49 24 15.98 24 0 24 C0 16.08 0 8.16 0 0 Z " fill="#1F4196" transform="translate(527,264)"/>
<path d="M0 0 C21.78 0 43.56 0 66 0 C66 13.86 66 27.72 66 42 C80.85 42 95.7 42 111 42 C111 49.92 111 57.84 111 66 C89.88 66 68.76 66 47 66 C47 51.81 47 37.62 47 23 C31.49 23 15.98 23 0 23 C0 15.41 0 7.82 0 0 Z " fill="#255BAD" transform="translate(440,579)"/>
<path d="M0 0 C21.78 0 43.56 0 66 0 C66 7.92 66 15.84 66 24 C50.49 24 34.98 24 19 24 C19 37.86 19 51.72 19 66 C-1.79 66 -22.58 66 -44 66 C-44 58.41 -44 50.82 -44 43 C-29.48 43 -14.96 43 0 43 C0 28.81 0 14.62 0 0 Z " fill="#1F4599" transform="translate(657,400)"/>
<path d="M0 0 C21.78 0 43.56 0 66 0 C66 14.19 66 28.38 66 43 C80.85 43 95.7 43 111 43 C111 50.59 111 58.18 111 66 C89.88 66 68.76 66 47 66 C47 51.81 47 37.62 47 23 C31.49 23 15.98 23 0 23 C0 15.41 0 7.82 0 0 Z " fill="#1F4A9D" transform="translate(393,315)"/>
<path d="M0 0 C7.59 0 15.18 0 23 0 C23 21.78 23 43.56 23 66 C9.14 66 -4.72 66 -19 66 C-19 76.56 -19 87.12 -19 98 C-26.92 98 -34.84 98 -43 98 C-43 80.18 -43 62.36 -43 44 C-28.81 44 -14.62 44 0 44 C0 29.48 0 14.96 0 0 Z " fill="#224B9E" transform="translate(570,358)"/>
<path d="M0 0 C3.44866771 2.4524852 6.64824391 4.96465016 9.640625 7.95703125 C9.640625 10.95703125 9.640625 10.95703125 8.03125 12.7109375 C6.97164062 13.60619141 6.97164062 13.60619141 5.890625 14.51953125 C4.84648438 15.41865234 4.84648438 15.41865234 3.78125 16.3359375 C1.79584537 17.83948298 -0.0969189 18.93281126 -2.359375 19.95703125 C-3.6278125 18.84328125 -3.6278125 18.84328125 -4.921875 17.70703125 C-14.67659007 9.64282887 -24.81797726 7.81952216 -37.359375 8.95703125 C-45.28276795 10.92902324 -52.46943032 16.46215291 -56.859375 23.33203125 C-60.02550121 30.6340881 -59.77215597 40.55864675 -57.359375 48.0703125 C-53.91544394 54.51789933 -48.86910139 57.90334027 -42.359375 60.95703125 C-41.18955078 61.51777344 -41.18955078 61.51777344 -39.99609375 62.08984375 C-31.68196783 64.82426738 -21.74107791 63.52461935 -13.796875 60.25 C-10.57006935 58.53834508 -7.83483096 56.45889586 -5.11328125 54.03125 C-3.359375 52.95703125 -3.359375 52.95703125 -1.36328125 53.0703125 C1.08715272 54.15461759 2.44425097 55.49925476 4.265625 57.45703125 C6.67673416 60.07509771 6.67673416 60.07509771 9.640625 61.95703125 C6.28891296 69.74976173 -2.85828523 73.89889465 -10.359375 76.95703125 C-24.0060611 81.57775128 -41.68792236 80.2638992 -54.546875 74.20703125 C-65.53334578 68.36914985 -72.68713128 60.17411997 -76.66015625 48.23828125 C-79.39148372 35.42087861 -77.86544831 23.85145736 -70.9375 12.66015625 C-55.44444241 -9.49658203 -22.50565303 -13.68657737 0 0 Z " fill="#333333" transform="translate(687.359375,739.04296875)"/>
<path d="M0 0 C6.27 0 12.54 0 19 0 C17.1992328 5.4023016 15.49855542 10.41563159 13.2578125 15.58203125 C12.49404297 17.35223633 12.49404297 17.35223633 11.71484375 19.15820312 C11.19019531 20.36412109 10.66554688 21.57003906 10.125 22.8125 C9.08534801 25.2145887 8.04628019 27.61693032 7.0078125 30.01953125 C6.25612793 31.75710693 6.25612793 31.75710693 5.48925781 33.52978516 C3.28367769 38.6691484 1.13950668 43.83281504 -1 49 C6.59 49.33 14.18 49.66 22 50 C21.154375 48.35 20.30875 46.7 19.4375 45 C16.36888087 38.0999907 16.75165346 34.2976553 19.3515625 27.4296875 C23.45352819 17.27323591 23.45352819 17.27323591 26 16 C28.56070126 21.91781666 31.11992418 27.83627117 33.67822266 33.75512695 C34.54476159 35.75949841 35.41161249 37.76373504 36.27880859 39.76782227 C38.7878341 45.56649129 41.29081438 51.36770113 43.78466797 57.1729126 C44.59462026 59.05701164 45.40614322 60.94043626 46.21923828 62.82318115 C47.35992456 65.46706885 48.49343941 68.11391492 49.625 70.76171875 C49.96797119 71.55326859 50.31094238 72.34481842 50.66430664 73.16035461 C53 78.65686197 53 78.65686197 53 82 C47.06 82 41.12 82 35 82 C31 74 31 74 29 66 C16.46 66 3.92 66 -9 66 C-9.99 68.97 -10.98 71.94 -12 75 C-13.32 77.31 -14.64 79.62 -16 82 C-21.61 82 -27.22 82 -33 82 C-32.19037203 77.14223221 -31.34925835 74.06740486 -29.41015625 69.6953125 C-29.15018356 69.10317963 -28.89021088 68.51104675 -28.62236023 67.90097046 C-28.06466132 66.63232542 -27.50397326 65.36499089 -26.94055176 64.09887695 C-25.44238108 60.73096095 -23.96721746 57.35295724 -22.48828125 53.9765625 C-22.19009491 53.29752869 -21.89190857 52.61849487 -21.58468628 51.91888428 C-18.90443854 45.80768804 -16.30718052 39.66372402 -13.75 33.5 C-13.35449951 32.54689941 -12.95899902 31.59379883 -12.55151367 30.61181641 C-8.33440649 20.4215607 -4.16160677 10.2130253 0 0 Z " fill="#333333" transform="translate(347,734)"/>
<path d="M0 0 C16.5 0 33 0 50 0 C50 5.28 50 10.56 50 16 C39.44 16 28.88 16 18 16 C18 22.27 18 28.54 18 35 C28.56 35 39.12 35 50 35 C50 39.95 50 44.9 50 50 C39.44 50 28.88 50 18 50 C18 55.94 18 61.88 18 68 C28.56 68 39.12 68 50 68 C50 73.28 50 78.56 50 84 C33.5 84 17 84 0 84 C0 56.28 0 28.56 0 0 Z " fill="#373737" transform="translate(547,733)"/>
<path d="M0 0 C22.77 0 45.54 0 69 0 C69 7.59 69 15.18 69 23 C54.15 23 39.3 23 24 23 C24 40.49 24 57.98 24 76 C16.08 76 8.16 76 0 76 C0 50.92 0 25.84 0 0 Z " fill="#2555A7" transform="translate(484,477)"/>
<path d="M0 0 C18.15 0 36.3 0 55 0 C53.60437657 4.18687029 52.25288875 7.77027729 50.34765625 11.68359375 C49.56165039 13.30587891 49.56165039 13.30587891 48.75976562 14.9609375 C47.91961914 16.68183594 47.91961914 16.68183594 47.0625 18.4375 C46.47938772 19.63911435 45.89671099 20.84094015 45.31445312 22.04296875 C44.12513267 24.49785288 42.93440403 26.95204562 41.74267578 29.40576172 C39.14536577 34.76266813 36.57006302 40.12997992 34 45.5 C33.56824463 46.39904053 33.13648926 47.29808105 32.69165039 48.22436523 C29.71097912 54.44971505 26.85753753 60.71341744 24 67 C33.9 67 43.8 67 54 67 C54 71.95 54 76.9 54 82 C53 83 53 83 50.79173279 83.12025452 C49.81688431 83.11803391 48.84203583 83.11581329 47.83764648 83.11352539 C46.73658066 83.11344986 45.63551483 83.11337433 44.50108337 83.11329651 C43.3031868 83.10813522 42.10529022 83.10297394 40.87109375 83.09765625 C39.65172623 83.0962413 38.4323587 83.09482635 37.17604065 83.09336853 C33.2631693 83.08774967 29.35035419 83.07519396 25.4375 83.0625 C22.79231853 83.05748743 20.14713617 83.0529241 17.50195312 83.04882812 C11.00128274 83.03777411 4.50064539 83.02101764 -2 83 C-1.41820618 79.54729503 -0.54421796 76.70632981 1.00610352 73.57128906 C1.62794273 72.30276093 1.62794273 72.30276093 2.26234436 71.00860596 C2.71330978 70.10342224 3.16427521 69.19823853 3.62890625 68.265625 C4.33079323 66.83848175 4.33079323 66.83848175 5.04685974 65.38250732 C6.54658639 62.33559678 8.05418739 59.29266803 9.5625 56.25 C11.52446546 52.27718877 13.48325733 48.3028185 15.44140625 44.328125 C15.916315 43.36547729 16.39122375 42.40282959 16.88052368 41.41101074 C21.02687426 32.98881169 25.03352637 24.50834533 29 16 C19.43 16 9.86 16 0 16 C0 10.72 0 5.44 0 0 Z " fill="#363636" transform="translate(416,734)"/>
<path d="M0 0 C7.59 0 15.18 0 23 0 C23 9.9 23 19.8 23 30 C37.85 30 52.7 30 68 30 C68 37.92 68 45.84 68 54 C45.56 54 23.12 54 0 54 C0 36.18 0 18.36 0 0 Z " fill="#1F4CA0" transform="translate(570,455)"/>
<path d="M0 0 C22.44 0 44.88 0 68 0 C68 16.83 68 33.66 68 51 C60.41 51 52.82 51 45 51 C45 41.43 45 31.86 45 22 C30.15 22 15.3 22 0 22 C0 14.74 0 7.48 0 0 Z " fill="#204EA2" transform="translate(442,402)"/>
<path d="M0 0 C16.83 0 33.66 0 51 0 C51 5.28 51 10.56 51 16 C45.39 16 39.78 16 34 16 C34 38.11 34 60.22 34 83 C28.06 83 22.12 83 16 83 C16 60.89 16 38.78 16 16 C10.72 16 5.44 16 0 16 C0 10.72 0 5.44 0 0 Z " fill="#333333" transform="translate(484,734)"/>
<path d="M0 0 C0.66 0 1.32 0 2 0 C2.495 2.475 2.495 2.475 3 5 C4.32 5.33 5.64 5.66 7 6 C7.82536345 11.71905383 8.12753701 17.2267149 8.0625 23 C8.05798828 23.77472656 8.05347656 24.54945313 8.04882812 25.34765625 C8.03719758 27.23180524 8.01926906 29.11591365 8 31 C3.30491019 32.34145423 -1.34430553 31.99511628 -6.19558716 31.97434998 C-9.60613274 31.96104738 -13.016684 31.95287785 -16.42724609 31.94506836 C-18.2293353 31.94001272 -20.03142036 31.93316971 -21.83349609 31.92456055 C-24.43327842 31.91247405 -27.03300728 31.90676974 -29.6328125 31.90234375 C-30.44114532 31.89718246 -31.24947815 31.89202118 -32.08230591 31.88670349 C-36.17246667 31.78328567 -36.17246667 31.78328567 -40 33 C-39.99555878 33.60277267 -39.99111755 34.20554535 -39.98654175 34.82658386 C-39.94226888 41.10449857 -39.91211708 47.38236887 -39.89013672 53.66040039 C-39.88008391 56.00286663 -39.8664397 58.34532035 -39.84912109 60.68774414 C-39.82484148 64.05618383 -39.81350958 67.42445747 -39.8046875 70.79296875 C-39.79436493 71.83897751 -39.78404236 72.88498627 -39.77340698 73.96269226 C-39.77325592 74.94333145 -39.77310486 75.92397064 -39.77294922 76.93432617 C-39.768508 77.79370285 -39.76406677 78.65307953 -39.75949097 79.53849792 C-40.0372182 82.38091154 -40.67771151 84.46893546 -42 87 C-45.70589625 88.23529875 -49.15465752 88.70815218 -53 88 C-54.66666667 86.33333333 -56.33333333 84.66666667 -58 83 C-60.99369289 82.27948408 -63.92719384 82.07364023 -67 82 C-67 81.67 -67 81.34 -67 81 C-59.41 81 -51.82 81 -44 81 C-44 63.51 -44 46.02 -44 28 C-29.15 28 -14.3 28 1 28 C1 20.41 1 12.82 1 5 C-21.44 5 -43.88 5 -67 5 C-63.47636527 2.65091018 -61.96080225 2.73038274 -57.78442383 2.68115234 C-56.5033223 2.66128265 -55.22222076 2.64141296 -53.90229797 2.62094116 C-52.50387749 2.60906473 -51.10545517 2.59740188 -49.70703125 2.5859375 C-48.27641174 2.56722739 -46.84580329 2.54765409 -45.41520691 2.5272522 C-41.65221673 2.47590817 -37.88919077 2.43629479 -34.1260376 2.39910889 C-30.28510672 2.35908336 -26.444325 2.30798443 -22.60351562 2.2578125 C-15.06911272 2.16102639 -7.53463771 2.07663039 0 2 C0 1.34 0 0.68 0 0 Z " fill="#D5D4D6" transform="translate(552,472)"/>
<path d="M0 0 C0.33 0 0.66 0 1 0 C2.14806378 15.74487472 2.14806378 15.74487472 2 23 C2.99 23 3.98 23 5 23 C5.02529705 29.51447727 5.04284444 36.02894193 5.05493164 42.54345703 C5.05996909 44.76090976 5.06679922 46.97835916 5.07543945 49.19580078 C5.08753072 52.37793805 5.0932341 55.56003151 5.09765625 58.7421875 C5.10281754 59.73805878 5.10797882 60.73393005 5.11329651 61.75997925 C5.11337204 62.68078278 5.11344757 63.6015863 5.11352539 64.55029297 C5.115746 65.3630368 5.11796661 66.17578064 5.12025452 67.01315308 C5 69 5 69 4 71 C-3.59 71 -11.18 71 -19 71 C-19 70.34 -19 69.68 -19 69 C-20.6254308 69.14095064 -22.25034051 69.28792087 -23.875 69.4375 C-24.77992188 69.51871094 -25.68484375 69.59992188 -26.6171875 69.68359375 C-29.01110861 69.86989285 -29.01110861 69.86989285 -31 71 C-31.33 70.34 -31.66 69.68 -32 69 C-32.99 69.33 -33.98 69.66 -35 70 C-35 83.2 -35 96.4 -35 110 C-37.475 110.99 -37.475 110.99 -40 112 C-40.44988281 112.69609375 -40.89976562 113.3921875 -41.36328125 114.109375 C-43 116 -43 116 -46.35546875 116.390625 C-47.62003906 116.34421875 -48.88460938 116.2978125 -50.1875 116.25 C-51.45980469 116.21390625 -52.73210937 116.1778125 -54.04296875 116.140625 C-55.01878906 116.09421875 -55.99460937 116.0478125 -57 116 C-57.66 114.68 -58.32 113.36 -59 112 C-61.31 112 -63.62 112 -66 112 C-66 111.67 -66 111.34 -66 111 C-58.08 111 -50.16 111 -42 111 C-42 96.48 -42 81.96 -42 67 C-28.14 67 -14.28 67 0 67 C0 44.89 0 22.78 0 0 Z " fill="#CBCFD5" transform="translate(459,489)"/>
<path d="M0 0 C0.99 0.66 1.98 1.32 3 2 C4.32 2 5.64 2 7 2 C7 22.46 7 42.92 7 64 C-16.4375 63.9375 -16.4375 63.9375 -23.84545898 63.90991211 C-25.77067001 63.90699309 -27.69588165 63.9044445 -29.62109375 63.90234375 C-30.63079224 63.89722778 -31.64049072 63.89211182 -32.68078613 63.88684082 C-33.6348938 63.88671997 -34.58900146 63.88659912 -35.57202148 63.88647461 C-36.40475082 63.884254 -37.23748016 63.88203339 -38.09544373 63.87974548 C-40.01033274 63.78995168 -40.01033274 63.78995168 -41 65 C-41.09304018 66.47354348 -41.11746265 67.95150591 -41.11352539 69.42797852 C-41.11341209 70.83932823 -41.11341209 70.83932823 -41.11329651 72.27919006 C-41.10813522 73.30209641 -41.10297394 74.32500275 -41.09765625 75.37890625 C-41.09553383 76.941605 -41.09553383 76.941605 -41.09336853 78.53587341 C-41.0877508 81.87811094 -41.0751953 85.22028257 -41.0625 88.5625 C-41.05748728 90.82226466 -41.05292398 93.08203037 -41.04882812 95.34179688 C-41.03777561 100.89455391 -41.02102024 106.44727225 -41 112 C-43.91809581 111.91293747 -46.83315711 111.80605266 -49.75 111.6875 C-50.9875 111.65366211 -50.9875 111.65366211 -52.25 111.61914062 C-59.65230937 111.29081239 -59.65230937 111.29081239 -63 108 C-63.99 107.34 -64.98 106.68 -66 106 C-58.41 106 -50.82 106 -43 106 C-43 91.48 -43 76.96 -43 62 C-28.81 62 -14.62 62 0 62 C0 41.54 0 21.08 0 0 Z " fill="#D4D7D5" transform="translate(417,360)"/>
<path d="M0 0 C1.32 0.33 2.64 0.66 4 1 C3 4 3 4 2 5 C1.95936168 6.66617115 1.957279 8.33388095 2 10 C2.99 10.495 2.99 10.495 4 11 C4 23.21 4 35.42 4 48 C-1 47 -1 47 -4 46 C-6.56205343 46.06221322 -9.07319492 46.18313496 -11.625 46.375 C-12.31851563 46.41882813 -13.01203125 46.46265625 -13.7265625 46.5078125 C-17.15664852 46.47510275 -17.15664852 46.47510275 -20 48 C-21.69558726 48.09932153 -23.39525747 48.13080007 -25.09375 48.1328125 C-26.12371094 48.13410156 -27.15367187 48.13539063 -28.21484375 48.13671875 C-29.84099609 48.13091797 -29.84099609 48.13091797 -31.5 48.125 C-32.58410156 48.12886719 -33.66820312 48.13273437 -34.78515625 48.13671875 C-35.81511719 48.13542969 -36.84507812 48.13414062 -37.90625 48.1328125 C-38.85822266 48.13168457 -39.81019531 48.13055664 -40.79101562 48.12939453 C-43 48 -43 48 -44 47 C-46.34987262 46.76472227 -48.70556039 46.58613583 -51.0625 46.4375 C-52.35285156 46.35371094 -53.64320313 46.26992188 -54.97265625 46.18359375 C-56.47119141 46.09271484 -56.47119141 46.09271484 -58 46 C-58 45.01 -58 44.02 -58 43 C-59.98 43 -61.96 43 -64 43 C-64 34.75 -64 26.5 -64 18 C-49.15 18 -34.3 18 -19 18 C-19 18.33 -19 18.66 -19 19 C-33.52 19 -48.04 19 -63 19 C-63 26.59 -63 34.18 -63 42 C-42.21 42 -21.42 42 0 42 C0 28.14 0 14.28 0 0 Z " fill="#A3B0C8" transform="translate(676,424)"/>
<path d="M0 0 C0.66 0 1.32 0 2 0 C2.33 1.98 2.66 3.96 3 6 C4.32 5.67 5.64 5.34 7 5 C7 26.45 7 47.9 7 70 C5.35 69.67 3.7 69.34 2 69 C1.01 69.495 1.01 69.495 0 70 C0 48.22 0 26.44 0 4 C-7.59 4 -15.18 4 -23 4 C-23 3.67 -23 3.34 -23 3 C-17.98391475 1.9823597 -13.21391694 1.88143566 -8.125 1.9375 C-7.34125 1.94201172 -6.5575 1.94652344 -5.75 1.95117188 C-3.83329986 1.96285907 -1.91663952 1.98079092 0 2 C0 1.34 0 0.68 0 0 Z " fill="#E0DFE0" transform="translate(593,354)"/>
<path d="M0 0 C1.65 0 3.3 0 5 0 C5 13.86 5 27.72 5 42 C26.12 42 47.24 42 69 42 C69 36.06 69 30.12 69 24 C69.99 22.515 69.99 22.515 71 21 C71 29.58 71 38.16 71 47 C63.1229992 48.12528583 63.1229992 48.12528583 59.18212891 48.12939453 C58.30497223 48.13254669 57.42781555 48.13569885 56.52407837 48.13894653 C55.60089813 48.1369223 54.6777179 48.13489807 53.7265625 48.1328125 C52.28003799 48.13424759 52.28003799 48.13424759 50.80429077 48.13571167 C48.77886896 48.13638903 46.75344492 48.13456584 44.72802734 48.13037109 C41.61420908 48.12498132 38.50053277 48.13034903 35.38671875 48.13671875 C33.41666635 48.13605858 31.44661403 48.13477868 29.4765625 48.1328125 C28.54123688 48.13483673 27.60591125 48.13686096 26.64224243 48.13894653 C25.78399872 48.13579437 24.925755 48.13264221 24.04150391 48.12939453 C23.28318268 48.12859894 22.52486145 48.12780334 21.74356079 48.12698364 C20 48 20 48 19 47 C16.81360547 46.92741054 14.62499611 46.91626217 12.4375 46.9375 C11.23996094 46.94652344 10.04242187 46.95554687 8.80859375 46.96484375 C7.41833984 46.98224609 7.41833984 46.98224609 6 47 C6 45.68 6 44.36 6 43 C5.34 43 4.68 43 4 43 C4 31.45 4 19.9 4 8 C3.01 8.33 2.02 8.66 1 9 C0 8 0 8 -0.09765625 6.15234375 C-0.06510417 4.1015625 -0.03255208 2.05078125 0 0 Z " fill="#DBDCDC" transform="translate(569,288)"/>
<path d="M0 0 C2.475 0.495 2.475 0.495 5 1 C6.16652937 7.46630283 6.14450123 13.83295643 6.1328125 20.390625 C6.13376923 21.57219177 6.13472595 22.75375854 6.13571167 23.97113037 C6.13639011 26.45894423 6.13455933 28.94675989 6.13037109 31.43457031 C6.12499903 35.25069112 6.13033728 39.06669525 6.13671875 42.8828125 C6.13605828 45.30208359 6.13477777 47.72135461 6.1328125 50.140625 C6.13483673 51.28436584 6.13686096 52.42810669 6.13894653 53.60650635 C6.13421829 55.1939566 6.13421829 55.1939566 6.12939453 56.81347656 C6.12859894 57.74500549 6.12780334 58.67653442 6.12698364 59.6362915 C6 62 6 62 5 65 C4.42814972 64.99777939 3.85629944 64.99555878 3.26712036 64.99327087 C-2.66973243 64.97119517 -8.60657362 64.9560838 -14.54345703 64.94506836 C-16.76090976 64.94003091 -18.97835916 64.93320078 -21.19580078 64.92456055 C-24.37793805 64.91246928 -27.56003151 64.9067659 -30.7421875 64.90234375 C-32.23599442 64.89460182 -32.23599442 64.89460182 -33.75997925 64.88670349 C-34.68078278 64.88662796 -35.6015863 64.88655243 -36.55029297 64.88647461 C-37.76940872 64.88314369 -37.76940872 64.88314369 -39.01315308 64.87974548 C-41.07527359 64.87415342 -41.07527359 64.87415342 -43 66 C-43 64.68 -43 63.36 -43 62 C-28.81 62 -14.62 62 0 62 C0 41.54 0 21.08 0 0 Z " fill="#D9DAD9" transform="translate(730,447)"/>
<path d="M0 0 C0.99 0 1.98 0 3 0 C3 7.92 3 15.84 3 24 C-17.46 24 -37.92 24 -59 24 C-59 23.34 -59 22.68 -59 22 C-59.66 22 -60.32 22 -61 22 C-60.34 20.68 -59.68 19.36 -59 18 C-39.53 18 -20.06 18 0 18 C0 12.06 0 6.12 0 0 Z " fill="#DDDDDF" transform="translate(685,576)"/>
<path d="M0 0 C2.34428742 4.62773692 2.26013564 8.74309031 2.1953125 13.80078125 C2.1924826 14.63715622 2.18965271 15.47353119 2.18673706 16.33525085 C2.1755832 18.99448226 2.15048763 21.65337118 2.125 24.3125 C2.11496399 26.12043783 2.10583923 27.92838096 2.09765625 29.73632812 C2.07565959 34.15768312 2.04116294 38.57878358 2 43 C2.66 43.33 3.32 43.66 4 44 C2 45 2 45 -4 45 C-4 31.14 -4 17.28 -4 3 C-25.78 3 -47.56 3 -70 3 C-70 2.67 -70 2.34 -70 2 C-62.88919567 0.92175824 -55.85609261 0.78242662 -48.671875 0.68359375 C-47.40531067 0.66281265 -46.13874634 0.64203156 -44.83380127 0.62062073 C-41.48831309 0.56655267 -38.14281198 0.51625126 -34.79724121 0.46777344 C-31.39081566 0.41740116 -27.98447728 0.36170753 -24.578125 0.30664062 C-5.32076683 0 -5.32076683 0 0 0 Z " fill="#DBE6F8" transform="translate(510,576)"/>
<path d="M0 0 C0.99 0.33 1.98 0.66 3 1 C4.30305052 6.98298409 4.16189425 12.94834164 4.16796875 19.0390625 C4.17129715 20.1974765 4.17462555 21.3558905 4.17805481 22.54940796 C4.18310646 24.99191899 4.18546368 27.43443688 4.18530273 29.87695312 C4.18749625 33.61860408 4.20569007 37.35996339 4.22460938 41.1015625 C4.22754221 43.47656149 4.22952774 45.85156188 4.23046875 48.2265625 C4.23765427 49.34640533 4.24483978 50.46624817 4.25224304 51.62002563 C4.24916641 52.66145721 4.24608978 53.70288879 4.24291992 54.77587891 C4.24434494 55.69043854 4.24576996 56.60499817 4.24723816 57.54727173 C3.98622632 60.13664189 3.31079142 61.77258272 2 64 C2.66 64.33 3.32 64.66 4 65 C1.66666667 65 -0.66666667 65 -3 65 C-3.81210937 65.02320313 -4.62421875 65.04640625 -5.4609375 65.0703125 C-6.90339844 65.09738281 -6.90339844 65.09738281 -8.375 65.125 C-9.33148437 65.14820313 -10.28796875 65.17140625 -11.2734375 65.1953125 C-14.04943639 64.99645871 -15.63892851 64.42111886 -18 63 C-18 62.01 -18 61.02 -18 60 C-19.98 60 -21.96 60 -24 60 C-24 59.67 -24 59.34 -24 59 C-16.08 59 -8.16 59 0 59 C0 39.53 0 20.06 0 0 Z " fill="#DAD8D7" transform="translate(596,575)"/>
<path d="M0 0 C0.33 0 0.66 0 1 0 C1 21.12 1 42.24 1 64 C8.59 64 16.18 64 24 64 C24 49.48 24 34.96 24 20 C25.98 20 27.96 20 30 20 C29.67 20.66 29.34 21.32 29 22 C28.84279903 24.9148537 28.74144346 27.80939636 28.68359375 30.7265625 C28.66281265 31.58937836 28.64203156 32.45219421 28.62062073 33.34115601 C28.55513966 36.10235493 28.49624702 38.86365038 28.4375 41.625 C28.3943134 43.49480172 28.35069907 45.36459362 28.30664062 47.234375 C28.19945976 51.82281728 28.09818825 56.41135683 28 61 C28.66 61 29.32 61 30 61 C30 63.64 30 66.28 30 69 C29.236875 68.814375 28.47375 68.62875 27.6875 68.4375 C24.91032625 67.77180827 24.91032625 67.77180827 22 69 C19.95703125 68.87890625 19.95703125 68.87890625 17.8125 68.5625 C15.9253125 68.2840625 15.9253125 68.2840625 14 68 C14 67.34 14 66.68 14 66 C7.07 65.505 7.07 65.505 0 65 C0 43.55 0 22.1 0 0 Z " fill="#AEB9CE" transform="translate(618,355)"/>
<path d="M0 0 C3 2 3 2 3.75 4.75 C4 8 4 8 3.51953125 10.7109375 C2.92810972 14.45512493 2.88992247 18.09807586 2.9375 21.875 C2.94201172 22.56335938 2.94652344 23.25171875 2.95117188 23.9609375 C2.96283664 25.64066335 2.98076729 27.32034375 3 29 C-2.46264314 29.02476266 -7.92525343 29.04288974 -13.38793945 29.05493164 C-15.24536712 29.05995303 -17.10279085 29.06677141 -18.96020508 29.07543945 C-21.63363621 29.08760117 -24.30701496 29.09325033 -26.98046875 29.09765625 C-27.80773972 29.10281754 -28.63501068 29.10797882 -29.48735046 29.11329651 C-33.49747951 29.11368461 -37.06207718 28.81161905 -41 28 C-43.75256244 28.84979475 -43.75256244 28.84979475 -46 30 C-46 27.69 -46 25.38 -46 23 C-30.82 23 -15.64 23 0 23 C0 15.41 0 7.82 0 0 Z " fill="#B8C2C8" transform="translate(461,443)"/>
<path d="M0 0 C0.33 0 0.66 0 1 0 C1 17.49 1 34.98 1 53 C-1.42666795 54.21333397 -3.33499722 54 -6 54 C-6.02481154 48.28914706 -6.04291275 42.57832586 -6.05493164 36.86743164 C-6.05994485 34.92667087 -6.06675712 32.98591384 -6.07543945 31.04516602 C-6.08763732 28.24754916 -6.09325855 25.44998245 -6.09765625 22.65234375 C-6.10281754 21.7916478 -6.10797882 20.93095184 -6.11329651 20.04417419 C-6.11373768 15.25270335 -5.80561817 10.72499236 -5 6 C-4.67 6.99 -4.34 7.98 -4 9 C-3.34 9 -2.68 9 -2 9 C-2 8.01 -2 7.02 -2 6 C-1.34 6 -0.68 6 0 6 C0 4.02 0 2.04 0 0 Z " fill="#F6F7F8" transform="translate(526,402)"/>
<path d="M0 0 C7.59 0 15.18 0 23 0 C23 0.33 23 0.66 23 1 C16.73 1 10.46 1 4 1 C3.95066918 7.79930555 3.91431337 14.5985076 3.89013672 21.39794922 C3.88006108 23.71242079 3.86640025 26.02687959 3.84912109 28.34130859 C3.82494135 31.66246693 3.8135327 34.9834574 3.8046875 38.3046875 C3.79436493 39.34430634 3.78404236 40.38392517 3.77340698 41.45504761 C3.77325592 42.41589264 3.77310486 43.37673767 3.77294922 44.36669922 C3.768508 45.21497284 3.76406677 46.06324646 3.75949097 46.93722534 C3.80984639 49.22348545 3.80984639 49.22348545 6 51 C6 51.33 6 51.66 6 52 C26.46 52.33 46.92 52.66 68 53 C68 53.33 68 53.66 68 54 C45.56 54 23.12 54 0 54 C0 36.18 0 18.36 0 0 Z " fill="#3058A3" transform="translate(570,455)"/>
<path d="M0 0 C2.31 0 4.62 0 7 0 C6.67 0.99 6.34 1.98 6 3 C5.914591 5.94964113 5.88417073 8.87503019 5.90234375 11.82421875 C5.9037587 12.68561966 5.90517365 13.54702057 5.90663147 14.43452454 C5.9122286 17.18555169 5.92478054 19.93649744 5.9375 22.6875 C5.94251537 24.5527332 5.94707821 26.41796767 5.95117188 28.28320312 C5.96219708 32.85550011 5.97945973 37.42773625 6 42 C4.02 42.66 2.04 43.32 0 44 C0 29.48 0 14.96 0 0 Z M-18 44 C-12.39 44.33 -6.78 44.66 -1 45 C-1.33 45.99 -1.66 46.98 -2 48 C-6.62 48 -11.24 48 -16 48 C-16.66 46.68 -17.32 45.36 -18 44 Z " fill="#D6D6D2" transform="translate(418,557)"/>
<path d="M0 0 C7.59 0 15.18 0 23 0 C22.67 1.65 22.34 3.3 22 5 C17.05 5 12.1 5 7 5 C6.96559814 6.1960083 6.93119629 7.3920166 6.89575195 8.62426758 C6.76176742 13.05890992 6.59582355 17.49187764 6.42016602 21.92504883 C6.34860036 23.84433921 6.28572185 25.76397391 6.23168945 27.68383789 C6.15253209 30.44293538 6.04225027 33.19928822 5.92578125 35.95703125 C5.90784012 36.81649857 5.88989899 37.67596588 5.87141418 38.56147766 C5.83175034 39.36208115 5.79208649 40.16268463 5.7512207 40.98754883 C5.72679398 41.6914827 5.70236725 42.39541656 5.67720032 43.12068176 C5 45 5 45 0 48 C0 32.16 0 16.32 0 0 Z " fill="#1E4295" transform="translate(706,443)"/>
<path d="M0 0 C15.51 0 31.02 0 47 0 C47 14.19 47 28.38 47 43 C46.67 43 46.34 43 46 43 C46 31.45 46 19.9 46 8 C44.35 8 42.7 8 41 8 C41 7.34 41 6.68 41 6 C39.93471069 6.00785522 39.93471069 6.00785522 38.84790039 6.01586914 C35.5861095 6.03683761 32.32433286 6.04972281 29.0625 6.0625 C27.94552734 6.07087891 26.82855469 6.07925781 25.67773438 6.08789062 C19.37978757 6.10635968 13.21033915 6.11467626 7 5 C6.34 4.01 5.68 3.02 5 2 C2.43717258 1.27034634 2.43717258 1.27034634 0 1 C0 0.67 0 0.34 0 0 Z " fill="#BECAD2" transform="translate(440,602)"/>
<path d="M0 0 C2.4375 0.625 2.4375 0.625 5 2 C6.18623566 6.68229874 6.14610136 11.40495825 6.1328125 16.20703125 C6.13376923 16.97303146 6.13472595 17.73903168 6.13571167 18.52824402 C6.13638863 20.13593631 6.13456829 21.74363141 6.13037109 23.35131836 C6.12497891 25.82216422 6.13035124 28.29283134 6.13671875 30.76367188 C6.13605861 32.3281254 6.13477876 33.89257882 6.1328125 35.45703125 C6.13483673 36.19862991 6.13686096 36.94022858 6.13894653 37.70429993 C6.11497642 42.88502358 6.11497642 42.88502358 5 44 C3.00041636 44.04080783 0.99954746 44.04254356 -1 44 C-1.02467203 38.05517888 -1.04284663 32.1103874 -1.05493164 26.16552734 C-1.05996831 24.14208457 -1.06679789 22.11864544 -1.07543945 20.09521484 C-1.08753412 17.19107157 -1.09323488 14.28697631 -1.09765625 11.3828125 C-1.10281754 10.47443634 -1.10797882 9.56606018 -1.11329651 8.63015747 C-1.11337204 7.78943695 -1.11344757 6.94871643 -1.11352539 6.08251953 C-1.115746 5.34083527 -1.11796661 4.599151 -1.12025452 3.83499146 C-1 2 -1 2 0 0 Z " fill="#DADDDD" transform="translate(554,526)"/>
<path d="M0 0 C20.13 0 40.26 0 61 0 C61 6.93 61 13.86 61 21 C47.8 21 34.6 21 21 21 C21 20.67 21 20.34 21 20 C33.21 20 45.42 20 58 20 C58 14.72 58 9.44 58 4 C38.86 3.67 19.72 3.34 0 3 C0 2.01 0 1.02 0 0 Z " fill="#1E54A9" transform="translate(399,444)"/>
<path d="M0 0 C15.51 0 31.02 0 47 0 C47 1.65 47 3.3 47 5 C39.62591092 6.15508914 32.32862328 6.18363 24.875 6.1875 C23.62589844 6.19974609 22.37679688 6.21199219 21.08984375 6.22460938 C19.27806641 6.22750977 19.27806641 6.22750977 17.4296875 6.23046875 C16.33897949 6.23457764 15.24827148 6.23868652 14.12451172 6.24291992 C10.80400784 5.98476229 8.10413006 5.17753928 5 4 C5.33 3.34 5.66 2.68 6 2 C3.03 1.505 3.03 1.505 0 1 C0 0.67 0 0.34 0 0 Z " fill="#D8D7D7" transform="translate(393,338)"/>
<path d="M0 0 C1.32 0 2.64 0 4 0 C4.76900359 2.75593006 5.14557132 5.26495639 5.22119141 8.12255859 C5.24436432 8.92374115 5.26753723 9.72492371 5.29141235 10.55038452 C5.32118668 11.83642075 5.32118668 11.83642075 5.3515625 13.1484375 C5.37471527 14.03858551 5.39786804 14.92873352 5.42172241 15.84585571 C5.46928337 17.7269339 5.51452678 19.60807191 5.55761719 21.48925781 C5.6245953 24.35766819 5.70245585 27.2256428 5.78125 30.09375 C5.82618199 31.92446306 5.87047381 33.75519196 5.9140625 35.5859375 C5.93796051 36.43924652 5.96185852 37.29255554 5.98648071 38.17172241 C6.07869572 42.58598619 5.91133456 46.65112908 5 51 C4.34 50.34 3.68 49.68 3 49 C3 48.01 3 47.02 3 46 C2.01 46 1.02 46 0 46 C0 30.82 0 15.64 0 0 Z " fill="#204EA0" transform="translate(393,356)"/>
<path d="M0 0 C0.66 0 1.32 0 2 0 C2.495 2.475 2.495 2.475 3 5 C4.32 5.33 5.64 5.66 7 6 C7.82536345 11.71905383 8.12753701 17.2267149 8.0625 23 C8.05798828 23.77472656 8.05347656 24.54945313 8.04882812 25.34765625 C8.03719758 27.23180524 8.01926906 29.11591365 8 31 C6.515 31.495 6.515 31.495 5 32 C5.01160156 31.21496094 5.02320313 30.42992187 5.03515625 29.62109375 C5.08375507 23.96280225 5.01294749 18.57121122 4 13 C3.01 12.67 2.02 12.34 1 12 C1 9.69 1 7.38 1 5 C-21.44 5 -43.88 5 -67 5 C-63.47636527 2.65091018 -61.96080225 2.73038274 -57.78442383 2.68115234 C-56.5033223 2.66128265 -55.22222076 2.64141296 -53.90229797 2.62094116 C-52.50387749 2.60906473 -51.10545517 2.59740188 -49.70703125 2.5859375 C-48.27641174 2.56722739 -46.84580329 2.54765409 -45.41520691 2.5272522 C-41.65221673 2.47590817 -37.88919077 2.43629479 -34.1260376 2.39910889 C-30.28510672 2.35908336 -26.444325 2.30798443 -22.60351562 2.2578125 C-15.06911272 2.16102639 -7.53463771 2.07663039 0 2 C0 1.34 0 0.68 0 0 Z " fill="#C1D0E7" transform="translate(552,472)"/>
<path d="M0 0 C0.33 0 0.66 0 1 0 C1.33 4.95 1.66 9.9 2 15 C2.66 15 3.32 15 4 15 C4 31.83 4 48.66 4 66 C2.66666667 66 1.33333333 66 0 66 C0 44.22 0 22.44 0 0 Z " fill="#C6CBD2" transform="translate(593,358)"/>
<path d="M0 0 C14.85 0 29.7 0 45 0 C45 0.33 45 0.66 45 1 C30.48 1 15.96 1 1 1 C1.7711529 29.50881347 1.7711529 29.50881347 3 58 C-0.91131319 60.16908014 -4.57759308 60.90944658 -9 60 C-10.66666667 58.33333333 -12.33333333 56.66666667 -14 55 C-16.99369289 54.27948408 -19.92719384 54.07364023 -23 54 C-23 53.67 -23 53.34 -23 53 C-15.41 53 -7.82 53 0 53 C0 35.51 0 18.02 0 0 Z " fill="#A4B7CA" transform="translate(508,500)"/>
<path d="M0 0 C7.59 0 15.18 0 23 0 C23 19.47 23 38.94 23 59 C22.01 59.495 22.01 59.495 21 60 C20.67 41.19 20.34 22.38 20 3 C14.72 3 9.44 3 4 3 C3.01 2.34 2.02 1.68 1 1 C1 16.51 1 32.02 1 48 C-0.65 48 -2.3 48 -4 48 C-2.02 47.505 -2.02 47.505 0 47 C0 31.49 0 15.98 0 0 Z " fill="#1D3C92" transform="translate(661,309)"/>
<path d="M0 0 C1.10091476 0.00015106 2.20182953 0.00030212 3.33610535 0.00045776 C5.11746635 0.01594162 5.11746635 0.01594162 6.93481445 0.03173828 C8.15135208 0.03456818 9.36788971 0.03739807 10.62129211 0.04031372 C14.51365929 0.05152475 18.40579786 0.0766313 22.2980957 0.10205078 C24.93416009 0.11207937 27.57022808 0.12120543 30.20629883 0.12939453 C36.67447602 0.15146712 43.14251953 0.1849539 49.6105957 0.22705078 C48.9505957 0.55705078 48.2905957 0.88705078 47.6105957 1.22705078 C47.6105957 1.88705078 47.6105957 2.54705078 47.6105957 3.22705078 C44.74117538 4.18352422 42.92331331 4.35864382 39.94311523 4.37231445 C38.52616867 4.38188423 38.52616867 4.38188423 37.08059692 4.39164734 C36.06182465 4.39276016 35.04305237 4.39387299 33.9934082 4.39501953 C32.94410126 4.39834793 31.89479431 4.40167633 30.81369019 4.40510559 C28.59283893 4.41017047 26.37198007 4.41251405 24.15112305 4.41235352 C20.75597561 4.41453767 17.36115429 4.4326918 13.96606445 4.45166016 C11.80851348 4.45459463 9.65096097 4.45657907 7.4934082 4.45751953 C6.47868439 4.46470505 5.46396057 4.47189056 4.41848755 4.47929382 C3.46755219 4.47621719 2.51661682 4.47314056 1.53686523 4.4699707 C0.70430206 4.47139572 -0.12826111 4.47282074 -0.98605347 4.47428894 C-3.73274395 4.19173065 -5.88088281 3.35401884 -8.3894043 2.22705078 C-5.02292504 -0.01726872 -3.93317784 -0.01800081 0 0 Z " fill="#D4D5D3" transform="translate(635.389404296875,593.77294921875)"/>
<path d="M0 0 C0.92553743 3.13850064 1.11664647 5.93680778 1.09765625 9.203125 C1.09443359 10.1828125 1.09121094 11.1625 1.08789062 12.171875 C1.07532227 13.69554687 1.07532227 13.69554687 1.0625 15.25 C1.05798828 16.28125 1.05347656 17.3125 1.04882812 18.375 C1.03706088 20.91672573 1.02062011 23.45833319 1 26 C-1.97 26.495 -1.97 26.495 -5 27 C-5.495 26.01 -5.495 26.01 -6 25 C-7.30670654 24.98018066 -8.61341309 24.96036133 -9.9597168 24.93994141 C-14.8147282 24.86378281 -19.66944392 24.77508094 -24.52416992 24.68261719 C-26.62404537 24.64436986 -28.72398538 24.6095096 -30.82397461 24.578125 C-33.84512381 24.5323825 -36.86583016 24.47440277 -39.88671875 24.4140625 C-40.82335861 24.40251129 -41.75999847 24.39096008 -42.72502136 24.37905884 C-47.23130709 24.27737241 -50.91146809 24.13217126 -55 22 C-55 21.67 -55 21.34 -55 21 C-37.18 21 -19.36 21 -1 21 C-1 15.06 -1 9.12 -1 3 C-0.67 2.01 -0.34 1.02 0 0 Z " fill="#D2D3D2" transform="translate(639,309)"/>
<path d="M0 0 C1.485 0.99 1.485 0.99 3 2 C4.32 2 5.64 2 7 2 C7 22.46 7 42.92 7 64 C6.01 64 5.02 64 4 64 C2.875 60.25 2.875 60.25 4 58 C4.09039906 56.3351936 4.11755257 54.66676579 4.11352539 52.99951172 C4.11344986 51.95858368 4.11337433 50.91765564 4.11329651 49.84518433 C4.10813522 48.71807037 4.10297394 47.59095642 4.09765625 46.4296875 C4.09553383 44.70264084 4.09553383 44.70264084 4.09336853 42.94070435 C4.08775716 39.25211014 4.0752027 35.56357595 4.0625 31.875 C4.05748647 29.37890712 4.05292331 26.8828133 4.04882812 24.38671875 C4.03778403 18.25779191 4.0210348 12.12890024 4 6 C3.34 6 2.68 6 2 6 C1.34 6.66 0.68 7.32 0 8 C0 5.36 0 2.72 0 0 Z " fill="#E5E4E6" transform="translate(417,360)"/>
<path d="M0 0 C0.66 0 1.32 0 2 0 C2 2.64 2 5.28 2 8 C-19.45 8 -40.9 8 -63 8 C-63.33 7.01 -63.66 6.02 -64 5 C-42.88 5 -21.76 5 0 5 C0 3.35 0 1.7 0 0 Z " fill="#D4D3CF" transform="translate(638,504)"/>
<path d="M0 0 C2.50816459 2.50816459 3.61410019 3.90837736 5 7 C5.66 7 6.32 7 7 7 C7.03738281 8.26457031 7.07476563 9.52914063 7.11328125 10.83203125 C7.17893833 12.4922173 7.24538576 14.15237222 7.3125 15.8125 C7.33505859 16.64587891 7.35761719 17.47925781 7.38085938 18.33789062 C7.41630859 19.14033203 7.45175781 19.94277344 7.48828125 20.76953125 C7.51446533 21.50792236 7.54064941 22.24631348 7.56762695 23.00708008 C8.10437993 25.48111426 9.17691227 26.31031633 11 28 C11 28.66 11 29.32 11 30 C7.37 30 3.74 30 0 30 C0 20.1 0 10.2 0 0 Z " fill="#DCDCE1" transform="translate(593,455)"/>
<path d="M0 0 C0.33 0 0.66 0 1 0 C1.03738281 0.74765625 1.07476563 1.4953125 1.11328125 2.265625 C1.17902344 3.25046875 1.24476563 4.2353125 1.3125 5.25 C1.37050781 6.22453125 1.42851563 7.1990625 1.48828125 8.203125 C1.76191748 11.02493884 1.76191748 11.02493884 3.52734375 12.78125 C5.52054694 15.78427231 5.25959157 17.72423521 5.07421875 21.296875 C5.02612061 22.38323242 4.97802246 23.46958984 4.9284668 24.58886719 C4.84894775 25.96204102 4.76942871 27.33521484 4.6875 28.75 C4.460625 33.1225 4.23375 37.495 4 42 C17.53 42 31.06 42 45 42 C45 42.33 45 42.66 45 43 C30.15 43 15.3 43 0 43 C0 28.81 0 14.62 0 0 Z " fill="#B8BFCE" transform="translate(593,264)"/>
<path d="M0 0 C3 3 3 3 3.36076355 5.48674011 C3.35410172 6.47491226 3.34743988 7.46308441 3.34057617 8.48120117 C3.34034958 9.60213669 3.34012299 10.7230722 3.33988953 11.87797546 C3.32440567 13.08742325 3.30892181 14.29687103 3.29296875 15.54296875 C3.28872391 16.78170242 3.28447906 18.0204361 3.28010559 19.29670715 C3.26614733 22.58649001 3.23920213 25.87583203 3.20599365 29.16546631 C3.17527933 32.52366746 3.16159739 35.88193318 3.14648438 39.24023438 C3.11337359 45.82699574 3.06314257 52.4134618 3 59 C0.36 59 -2.28 59 -5 59 C-5 58.67 -5 58.34 -5 58 C-3.35 58 -1.7 58 0 58 C0 38.86 0 19.72 0 0 Z " fill="#D5D5D8" transform="translate(685,317)"/>
<path d="M0 0 C22.44 0 44.88 0 68 0 C68 0.33 68 0.66 68 1 C46.55 1 25.1 1 3 1 C3.33 2.32 3.66 3.64 4 5 C3.67 10.28 3.34 15.56 3 21 C16.53 21 30.06 21 44 21 C44 21.33 44 21.66 44 22 C29.48 22 14.96 22 0 22 C0 14.74 0 7.48 0 0 Z " fill="#4267AF" transform="translate(442,402)"/>
<path d="M0 0 C4.5 5.625 4.5 5.625 4.54589844 9.33129883 C4.56561707 10.151772 4.58533569 10.97224518 4.60565186 11.81758118 C4.60688049 12.6885997 4.60810913 13.55961823 4.609375 14.45703125 C4.62591125 15.35999435 4.64244751 16.26295746 4.65948486 17.19328308 C4.70792057 20.06642489 4.72932588 22.93903757 4.75 25.8125 C4.7781634 27.76500051 4.80809135 29.71747643 4.83984375 31.66992188 C4.91367837 36.44657102 4.96328007 41.22292719 5 46 C3.35 46 1.7 46 0 46 C0 30.82 0 15.64 0 0 Z " fill="#C6CCD3" transform="translate(508,275)"/>
<path d="M0 0 C0.33 0 0.66 0 1 0 C1.04241723 2.33294775 1.04092937 4.66702567 1 7 C-0.68411514 8.68411514 -2.77483658 8.12748119 -5.08300781 8.12939453 C-6.16793518 8.13254669 -7.25286255 8.13569885 -8.3706665 8.13894653 C-9.55287781 8.1369223 -10.73508911 8.13489807 -11.953125 8.1328125 C-13.16063416 8.13376923 -14.36814331 8.13472595 -15.61224365 8.13571167 C-18.17460176 8.13639393 -20.73696159 8.13453648 -23.29931641 8.13037109 C-27.21911527 8.12504199 -31.13879857 8.13030499 -35.05859375 8.13671875 C-37.54427109 8.13605761 -40.02994835 8.13477571 -42.515625 8.1328125 C-43.68973938 8.13483673 -44.86385376 8.13686096 -46.07354736 8.13894653 C-47.71985138 8.13421829 -47.71985138 8.13421829 -49.39941406 8.12939453 C-50.84383881 8.12820114 -50.84383881 8.12820114 -52.31744385 8.12698364 C-54.97370361 8.00124479 -57.41125208 7.59230699 -60 7 C-58 5 -58 5 -55.55758667 4.75949097 C-54.01870285 4.7661528 -54.01870285 4.7661528 -52.44873047 4.77294922 C-50.70715164 4.77317581 -50.70715164 4.77317581 -48.9303894 4.77340698 C-47.67203278 4.78372955 -46.41367615 4.79405212 -45.1171875 4.8046875 C-43.83264679 4.8075174 -42.54810608 4.81034729 -41.22463989 4.81326294 C-37.80837233 4.82090191 -34.39227463 4.84055248 -30.97607422 4.8626709 C-27.49058327 4.88312376 -24.0050649 4.89226345 -20.51953125 4.90234375 C-13.67961769 4.92379825 -6.839817 4.95793729 0 5 C0 3.35 0 1.7 0 0 Z " fill="#D2D3D5" transform="translate(551,640)"/>
<path d="M0 0 C0.33 0 0.66 0 1 0 C1 2.64 1 5.28 1 8 C-6.72297462 8.02537991 -14.44593847 8.04287951 -22.16894531 8.05493164 C-24.79557701 8.05995667 -27.42220591 8.06677774 -30.04882812 8.07543945 C-33.82682993 8.08758507 -37.60479471 8.09324667 -41.3828125 8.09765625 C-42.55490265 8.10281754 -43.7269928 8.10797882 -44.93460083 8.11329651 C-46.58563309 8.11340981 -46.58563309 8.11340981 -48.27001953 8.11352539 C-49.23376495 8.115746 -50.19751038 8.11796661 -51.19046021 8.12025452 C-54.1939231 7.99169966 -57.04717242 7.55092001 -60 7 C-58 5 -58 5 -55.55758667 4.75949097 C-54.01870285 4.7661528 -54.01870285 4.7661528 -52.44873047 4.77294922 C-50.70715164 4.77317581 -50.70715164 4.77317581 -48.9303894 4.77340698 C-47.67203278 4.78372955 -46.41367615 4.79405212 -45.1171875 4.8046875 C-43.83264679 4.8075174 -42.54810608 4.81034729 -41.22463989 4.81326294 C-37.80837233 4.82090191 -34.39227463 4.84055248 -30.97607422 4.8626709 C-27.49058327 4.88312376 -24.0050649 4.89226345 -20.51953125 4.90234375 C-13.67961769 4.92379825 -6.839817 4.95793729 0 5 C0 3.35 0 1.7 0 0 Z " fill="#D3D3D6" transform="translate(415,504)"/>
<path d="M0 0 C0.33 0 0.66 0 1 0 C1.33 18.15 1.66 36.3 2 55 C2.66 55.33 3.32 55.66 4 56 C1.66666667 56 -0.66666667 56 -3 56 C-3.81210937 56.02320313 -4.62421875 56.04640625 -5.4609375 56.0703125 C-6.42257812 56.08835937 -7.38421875 56.10640625 -8.375 56.125 C-9.33148437 56.14820313 -10.28796875 56.17140625 -11.2734375 56.1953125 C-14.04943639 55.99645871 -15.63892851 55.42111886 -18 54 C-18 53.01 -18 52.02 -18 51 C-19.98 51 -21.96 51 -24 51 C-24 50.67 -24 50.34 -24 50 C-16.08 50 -8.16 50 0 50 C0 33.5 0 17 0 0 Z " fill="#CCD2D5" transform="translate(596,584)"/>
<path d="M0 0 C1.98 0.495 1.98 0.495 4 1 C3 4 3 4 2 5 C1.95936168 6.66617115 1.957279 8.33388095 2 10 C2.66 10.33 3.32 10.66 4 11 C4 23.21 4 35.42 4 48 C2.35 47.67 0.7 47.34 -1 47 C-0.67 31.49 -0.34 15.98 0 0 Z " fill="#D7D6D7" transform="translate(676,424)"/>
<path d="M0 0 C2.82002646 3.98121382 1.61977226 7.35170804 1 12 C1 16.95 1 21.9 1 27 C-11.87 27 -24.74 27 -38 27 C-38.66 25.68 -39.32 24.36 -40 23 C-27.13 22.67 -14.26 22.34 -1 22 C-1 15.73 -1 9.46 -1 3 C-0.67 2.01 -0.34 1.02 0 0 Z " fill="#D8D7D9" transform="translate(463,445)"/>
<path d="M0 0 C17.82 0.33 35.64 0.66 54 1 C54 1.66 54 2.32 54 3 C52.39318359 3.09087891 52.39318359 3.09087891 50.75390625 3.18359375 C49.35675609 3.26798537 47.95962143 3.35263406 46.5625 3.4375 C45.50192383 3.49647461 45.50192383 3.49647461 44.41992188 3.55664062 C40.91309581 3.47624438 40.91309581 3.47624438 38 5 C36.30441274 5.09932153 34.60474253 5.13080007 32.90625 5.1328125 C31.87628906 5.13410156 30.84632813 5.13539063 29.78515625 5.13671875 C28.15900391 5.13091797 28.15900391 5.13091797 26.5 5.125 C25.41589844 5.12886719 24.33179688 5.13273437 23.21484375 5.13671875 C22.18488281 5.13542969 21.15492188 5.13414062 20.09375 5.1328125 C19.14177734 5.13168457 18.18980469 5.13055664 17.20898438 5.12939453 C15 5 15 5 14 4 C11.65012738 3.76472227 9.29443961 3.58613583 6.9375 3.4375 C5.64714844 3.35371094 4.35679687 3.26992188 3.02734375 3.18359375 C1.52880859 3.09271484 1.52880859 3.09271484 0 3 C0 2.01 0 1.02 0 0 Z " fill="#D6D8D4" transform="translate(618,467)"/>
<path d="M0 0 C0.33 0 0.66 0 1 0 C1.33 16.5 1.66 33 2 50 C-16 49 -16 49 -20 46 C-20.99 45.34 -21.98 44.68 -23 44 C-15.41 44 -7.82 44 0 44 C0 29.48 0 14.96 0 0 Z " fill="#B0BFCD" transform="translate(374,422)"/>
<path d="M0 0 C18.48 0 36.96 0 56 0 C56 0.66 56 1.32 56 2 C53.02118573 2.99293809 51.08512761 3.12119785 47.9777832 3.11352539 C46.95695145 3.11344986 45.93611969 3.11337433 44.88435364 3.11329651 C43.78427475 3.10813522 42.68419586 3.10297394 41.55078125 3.09765625 C40.4230278 3.0962413 39.29527435 3.09482635 38.13334656 3.09336853 C34.52637088 3.0877647 30.91945696 3.07521153 27.3125 3.0625 C24.86914152 3.05748549 22.42578207 3.0529225 19.98242188 3.04882812 C13.98826013 3.03779403 7.99413448 3.02105215 2 3 C2 2.34 2 1.68 2 1 C1.34 0.67 0.68 0.34 0 0 Z " fill="#D2D4D2" transform="translate(448,381)"/>
<path d="M0 0 C12.87 0 25.74 0 39 0 C39 3.3 39 6.6 39 10 C36.69 9.67 34.38 9.34 32 9 C32.33 7.02 32.66 5.04 33 3 C22.11 3 11.22 3 0 3 C0 2.01 0 1.02 0 0 Z " fill="#D5D6D8" transform="translate(488,341)"/>
<path d="M0 0 C1 4 1 4 1 8 C-2.10385211 8.11613204 -5.20714662 8.18722029 -8.3125 8.25 C-9.19357422 8.28351563 -10.07464844 8.31703125 -10.98242188 8.3515625 C-17.52876499 8.45112665 -17.52876499 8.45112665 -20.10546875 5.984375 C-20.40066406 5.32953125 -20.69585938 4.6746875 -21 4 C-20.67 3.34 -20.34 2.68 -20 2 C-21.32 1.67 -22.64 1.34 -24 1 C-16.08 0.67 -8.16 0.34 0 0 Z " fill="#DEDDDE" transform="translate(551,384)"/>
<path d="M0 0 C2.475 0.99 2.475 0.99 5 2 C5 13.55 5 25.1 5 37 C6.32 37 7.64 37 9 37 C9.33 38.98 9.66 40.96 10 43 C8.68 43 7.36 43 6 43 C5.7525 42.4225 5.505 41.845 5.25 41.25 C3.83316683 38.6997003 2.12372463 36.98214299 0 35 C0.66 35 1.32 35 2 35 C1.67 25.1 1.34 15.2 1 5 C0.34 5 -0.32 5 -1 5 C-1.33 3.68 -1.66 2.36 -2 1 C-1.34 0.67 -0.68 0.34 0 0 Z " fill="#F7FBFC" transform="translate(522,349)"/>
<path d="M0 0 C1.98 0 3.96 0 6 0 C5.67 0.66 5.34 1.32 5 2 C4.86702822 4.8799331 4.78999901 7.73964522 4.75390625 10.62109375 C4.72097301 12.37826029 4.68776128 14.13542162 4.65429688 15.89257812 C4.60683609 18.66866535 4.56239789 21.44473068 4.52319336 24.22094727 C4.48352627 26.89621908 4.43197391 29.57105896 4.37890625 32.24609375 C4.3704921 33.07741318 4.36207794 33.9087326 4.35340881 34.76524353 C4.26952653 38.66715311 4.21162322 40.68256517 2 44 C1.34 44 0.68 44 0 44 C0 29.48 0 14.96 0 0 Z " fill="#C1C8CD" transform="translate(642,375)"/>
<path d="M0 0 C14.19 0 28.38 0 43 0 C43 0.99 43 1.98 43 3 C41.76846191 2.99476318 40.53692383 2.98952637 39.26806641 2.98413086 C34.70964278 2.96606447 30.15122233 2.95456196 25.59277344 2.94506836 C23.61783313 2.9400319 21.64289657 2.93320249 19.66796875 2.92456055 C16.83332395 2.91246492 13.99872834 2.9067649 11.1640625 2.90234375 C10.27756012 2.89718246 9.39105774 2.89202118 8.47769165 2.88670349 C4.10228761 2.74597908 4.10228761 2.74597908 0 4 C0 2.68 0 1.36 0 0 Z " fill="#D1D1D4" transform="translate(687,509)"/>
<path d="M0 0 C0.99 0 1.98 0 3 0 C3 0.99 3 1.98 3 3 C3.99 3.33 4.98 3.66 6 4 C6 15.88 6 27.76 6 40 C5.01 40 4.02 40 3 40 C3 31.09 3 22.18 3 13 C2.34 13 1.68 13 1 13 C0.1276588 10.00519083 -0.10829766 7.36424089 -0.0625 4.25 C-0.05347656 3.45078125 -0.04445313 2.6515625 -0.03515625 1.828125 C-0.02355469 1.22484375 -0.01195312 0.6215625 0 0 Z " fill="#E1E0E1" transform="translate(594,266)"/>
<path d="M0 0 C11.88 0 23.76 0 36 0 C36 14.52 36 29.04 36 44 C35.67 44 35.34 44 35 44 C35 31.79 35 19.58 35 7 C34.01 6.67 33.02 6.34 32 6 C32 4.35 32 2.7 32 1 C30.99582031 1.0721875 29.99164062 1.144375 28.95703125 1.21875 C4.37782856 2.91855237 4.37782856 2.91855237 0 0 Z " fill="#C5D1D9" transform="translate(536,590)"/>
<path d="M0 0 C1.65 0 3.3 0 5 0 C5 13.86 5 27.72 5 42 C7.31 42 9.62 42 12 42 C12.33 43.65 12.66 45.3 13 47 C10.69 47 8.38 47 6 47 C6 45.68 6 44.36 6 43 C5.34 43 4.68 43 4 43 C4 31.45 4 19.9 4 8 C3.01 8.33 2.02 8.66 1 9 C0 8 0 8 -0.09765625 6.15234375 C-0.06510417 4.1015625 -0.03255208 2.05078125 0 0 Z " fill="#F0FBF6" transform="translate(569,288)"/>
<path d="M0 0 C0.99 0.33 1.98 0.66 3 1 C3.33 12.22 3.66 23.44 4 35 C2.68 35 1.36 35 0 35 C0 23.45 0 11.9 0 0 Z " fill="#D5D7D5" transform="translate(506,586)"/>
<path d="M0 0 C0.33 0 0.66 0 1 0 C1.99950502 11.82841513 2.12057652 23.57345384 2.0625 35.4375 C2.05746935 37.24804562 2.05290924 39.05859261 2.04882812 40.86914062 C2.03795937 45.24612846 2.02078325 49.62304848 2 54 C-3.28 54 -8.56 54 -14 54 C-14 53.34 -14 52.68 -14 52 C-16.97 52 -19.94 52 -23 52 C-23 51.67 -23 51.34 -23 51 C-15.41 51 -7.82 51 0 51 C0 34.17 0 17.34 0 0 Z " fill="#A9B9CB" transform="translate(510,402)"/>
<path d="M0 0 C15.84 0 31.68 0 48 0 C48 0.66 48 1.32 48 2 C41.32737504 3.00930462 34.80458965 3.15042586 28.0625 3.125 C27.00998047 3.12886719 25.95746094 3.13273438 24.87304688 3.13671875 C23.87466797 3.13542969 22.87628906 3.13414062 21.84765625 3.1328125 C20.94023682 3.13168457 20.03281738 3.13055664 19.09790039 3.12939453 C17 3 17 3 16 2 C13.30764224 1.76321284 10.63501844 1.57801975 7.9375 1.4375 C7.17888672 1.39431641 6.42027344 1.35113281 5.63867188 1.30664062 C3.75934562 1.20026367 1.87969756 1.09960066 0 1 C0 0.67 0 0.34 0 0 Z " fill="#F7F6F8" transform="translate(584,520)"/>
<path d="M0 0 C15.51 0 31.02 0 47 0 C47 0.99 47 1.98 47 3 C37.76 3 28.52 3 19 3 C19 2.34 19 1.68 19 1 C12.73 1 6.46 1 0 1 C0 0.67 0 0.34 0 0 Z " fill="#A7B4C7" transform="translate(393,338)"/>
<path d="M0 0 C2.4375 0.625 2.4375 0.625 5 2 C6.52755933 8.22619637 6.18605989 14.67956091 6.18530273 21.05029297 C6.18750125 23.12618155 6.20572959 25.20154807 6.22460938 27.27734375 C6.22654297 28.59089844 6.22847656 29.90445313 6.23046875 31.2578125 C6.23457764 32.4555127 6.23868652 33.65321289 6.24291992 34.88720703 C6 38 6 38 4 42 C3.67 31.11 3.34 20.22 3 9 C1.68 9.33 0.36 9.66 -1 10 C-1.125 2.25 -1.125 2.25 0 0 Z " fill="#E3E7E4" transform="translate(554,526)"/>
<path d="M0 0 C0.66 0.33 1.32 0.66 2 1 C2 12.55 2 24.1 2 36 C0.515 36.495 0.515 36.495 -1 37 C-1.02471738 32.21281308 -1.04286825 27.4256633 -1.05493164 22.63842773 C-1.05996065 21.00984042 -1.06678465 19.38125763 -1.07543945 17.75268555 C-1.08756769 15.41193528 -1.09324263 13.0712447 -1.09765625 10.73046875 C-1.10281754 10.00224411 -1.10797882 9.27401947 -1.11329651 8.52372742 C-1.11364279 5.40397712 -0.99455604 2.98366812 0 0 Z " fill="#E1E2E3" transform="translate(422,563)"/>
<path d="M0 0 C1.65 0 3.3 0 5 0 C6.02540318 7.54922814 6.11725965 14.95090843 6.0625 22.5625 C6.05798828 23.76197266 6.05347656 24.96144531 6.04882812 26.19726562 C6.03713769 29.13156359 6.02075138 32.06575449 6 35 C6.66 35.33 7.32 35.66 8 36 C6.02 36.495 6.02 36.495 4 37 C4 36.01 4 35.02 4 34 C3.34 33.67 2.68 33.34 2 33 C2.495 32.505 2.495 32.505 3 32 C3.09396414 27.39489913 2.85291711 22.78972135 2.6875 18.1875 C2.65205078 16.89005859 2.61660156 15.59261719 2.58007812 14.25585938 C2.51530273 12.38704102 2.51530273 12.38704102 2.44921875 10.48046875 C2.41143311 9.33473389 2.37364746 8.18899902 2.3347168 7.00854492 C2.01708724 4.15358578 1.47943868 2.4278254 0 0 Z " fill="#E2E1E2" transform="translate(506,584)"/>
<path d="M0 0 C3 3 3 3 3.1875 5.6875 C3.0946875 6.8321875 3.0946875 6.8321875 3 8 C3.66 8 4.32 8 5 8 C5 12.95 5 17.9 5 23 C3.35 23.33 1.7 23.66 0 24 C0 16.08 0 8.16 0 0 Z " fill="#D6DAD9" transform="translate(723,400)"/>
<path d="M0 0 C0.66 0 1.32 0 2 0 C2 2.64 2 5.28 2 8 C1.45062271 7.83766876 0.90124542 7.67533752 0.33522034 7.50808716 C-2.29588589 6.93562243 -4.67044591 6.8728815 -7.36352539 6.87060547 C-8.4346608 6.86745331 -9.5057962 6.86430115 -10.60939026 6.86105347 C-12.33608192 6.86408981 -12.33608192 6.86408981 -14.09765625 6.8671875 C-15.28346786 6.86623077 -16.46927948 6.86527405 -17.69102478 6.86428833 C-20.19676771 6.86360803 -22.70251241 6.86545187 -25.20825195 6.86962891 C-29.05098409 6.87498395 -32.8935996 6.86967637 -36.73632812 6.86328125 C-39.16927109 6.86394197 -41.60221399 6.86522299 -44.03515625 6.8671875 C-45.18830826 6.86516327 -46.34146027 6.86313904 -47.52955627 6.86105347 C-48.59753952 6.86420563 -49.66552277 6.86735779 -50.76586914 6.87060547 C-51.70644669 6.87140106 -52.64702423 6.87219666 -53.61610413 6.87301636 C-56.14883874 6.90221411 -56.14883874 6.90221411 -59 8 C-61.125 7.6875 -61.125 7.6875 -63 7 C-63.33 6.34 -63.66 5.68 -64 5 C-42.88 5 -21.76 5 0 5 C0 3.35 0 1.7 0 0 Z " fill="#D3D5E0" transform="translate(638,504)"/>
<path d="M0 0 C0.33 0 0.66 0 1 0 C1 1.98 1 3.96 1 6 C-2.78083258 8.52055505 -6.61718019 8.46702178 -11 8 C-13.5 7 -13.5 7 -15 6 C-15 5.01 -15 4.02 -15 3 C-15.66 2.67 -16.32 2.34 -17 2 C-11.39 2 -5.78 2 0 2 C0 1.34 0 0.68 0 0 Z " fill="#DCDCDD" transform="translate(687,552)"/>
<path d="M0 0 C7.26 0 14.52 0 22 0 C22 7.26 22 14.52 22 22 C21.67 22 21.34 22 21 22 C21 15.07 21 8.14 21 1 C20.01 1.495 20.01 1.495 19 2 C16.11629667 2.07194869 13.25760336 2.09291708 10.375 2.0625 C9.57320313 2.05798828 8.77140625 2.05347656 7.9453125 2.04882812 C5.96350994 2.03703168 3.98174567 2.01909605 2 2 C2 2.66 2 3.32 2 4 C7.61 4 13.22 4 19 4 C19 4.33 19 4.66 19 5 C17.86820312 5.06058594 16.73640625 5.12117188 15.5703125 5.18359375 C14.08852855 5.26799917 12.6067584 5.35264717 11.125 5.4375 C10.00544922 5.49647461 10.00544922 5.49647461 8.86328125 5.55664062 C4.80013136 5.71573624 4.80013136 5.71573624 1 7 C0.67 4.69 0.34 2.38 0 0 Z " fill="#2057A1" transform="translate(437,490)"/>
<path d="M0 0 C1.98 0 3.96 0 6 0 C6 9.57 6 19.14 6 29 C5.67 29 5.34 29 5 29 C5 22.73 5 16.46 5 10 C4.34 10 3.68 10 3 10 C2.67 10.66 2.34 11.32 2 12 C1.67 11.01 1.34 10.02 1 9 C0.34 8.67 -0.32 8.34 -1 8 C-0.67 5.36 -0.34 2.72 0 0 Z " fill="#C9D0DC" transform="translate(481,424)"/>
<path d="M0 0 C15.51 0 31.02 0 47 0 C47.495 0.99 47.495 0.99 48 2 C47.34 2 46.68 2 46 2 C46 2.66 46 3.32 46 4 C46.66 4 47.32 4 48 4 C48 5.32 48 6.64 48 8 C47.01 8 46.02 8 45 8 C45 6.02 45 4.04 45 2 C30.15 2 15.3 2 0 2 C0 1.34 0 0.68 0 0 Z " fill="#EAEFEE" transform="translate(640,568)"/>
<path d="M0 0 C1.65 0 3.3 0 5 0 C6.31626692 3.61973402 7 6.09567131 7 10 C5.35 10.33 3.7 10.66 2 11 C0 8 0 8 0 3 C-5.94 3 -11.88 3 -18 3 C-18 2.67 -18 2.34 -18 2 C-12.06 2 -6.12 2 0 2 C0 1.34 0 0.68 0 0 Z " fill="#F6F9FB" transform="translate(417,352)"/>
<path d="M0 0 C0.66 0 1.32 0 2 0 C2.33 12.21 2.66 24.42 3 37 C4.98 37.33 6.96 37.66 9 38 C9.33 39.65 9.66 41.3 10 43 C7.69 43 5.38 43 3 43 C2.505 41.515 2.505 41.515 2 40 C1.34 39.67 0.68 39.34 0 39 C0 26.13 0 13.26 0 0 Z " fill="#F3F7F8" transform="translate(569,597)"/>
<path d="M0 0 C0 0.66 0 1.32 0 2 C0.66 2 1.32 2 2 2 C2 2.99 2 3.98 2 5 C0.35 5 -1.3 5 -3 5 C-3 4.34 -3 3.68 -3 3 C-4.09671021 3.00785522 -4.09671021 3.00785522 -5.21557617 3.01586914 C-8.53954198 3.03670161 -11.86349403 3.04968014 -15.1875 3.0625 C-16.91323242 3.07506836 -16.91323242 3.07506836 -18.67382812 3.08789062 C-19.78564453 3.09111328 -20.89746094 3.09433594 -22.04296875 3.09765625 C-23.06414795 3.10289307 -24.08532715 3.10812988 -25.13745117 3.11352539 C-27.86901616 3.00519467 -30.34169374 2.61706868 -33 2 C-33 1.67 -33 1.34 -33 1 C-28.78249212 0.85694335 -24.56496269 0.71454463 -20.34741211 0.57275391 C-18.9128357 0.52443202 -17.47826532 0.47593077 -16.04370117 0.42724609 C-13.98097266 0.35727469 -11.91822328 0.28794962 -9.85546875 0.21875 C-7.99378052 0.1559082 -7.99378052 0.1559082 -6.09448242 0.09179688 C-4.06365121 0.03155289 -2.03172457 0 0 0 Z " fill="#DBDADC" transform="translate(484,605)"/>
<path d="M0 0 C1.32 1.65 2.64 3.3 4 5 C4 4.01 4 3.02 4 2 C4.66 2 5.32 2 6 2 C6.90483637 7.36489595 7.12303662 12.50317457 7.0625 17.9375 C7.05798828 18.71673828 7.05347656 19.49597656 7.04882812 20.29882812 C7.03716908 22.19925268 7.01923877 24.09963706 7 26 C6.01 26.33 5.02 26.66 4 27 C4.01160156 26.21496094 4.02320313 25.42992187 4.03515625 24.62109375 C4.08375507 18.96280225 4.01294749 13.57121122 3 8 C2.01 7.67 1.02 7.34 0 7 C0 4.69 0 2.38 0 0 Z " fill="#E6E6E7" transform="translate(553,477)"/>
<path d="M0 0 C0.33 0 0.66 0 1 0 C1 11.22 1 22.44 1 34 C1.66 34.33 2.32 34.66 3 35 C1.02 35.495 1.02 35.495 -1 36 C-1.02468447 31.19450253 -1.04285255 26.38904182 -1.05493164 21.58349609 C-1.05996621 19.94807289 -1.06679427 18.3126542 -1.07543945 16.67724609 C-1.08754335 14.32909025 -1.093237 11.98099381 -1.09765625 9.6328125 C-1.10281754 8.89942657 -1.10797882 8.16604065 -1.11329651 7.41043091 C-1.11387171 2.22774341 -1.11387171 2.22774341 0 0 Z " fill="#D5D3D7" transform="translate(554,534)"/>
<path d="M0 0 C13.2 0 26.4 0 40 0 C40 2.64 40 5.28 40 8 C38.68 7.67 37.36 7.34 36 7 C36 5.35 36 3.7 36 2 C23.79 2 11.58 2 -1 2 C-0.67 1.34 -0.34 0.68 0 0 Z " fill="#F2F9F6" transform="translate(560,568)"/>
<path d="M0 0 C0.99 0.33 1.98 0.66 3 1 C4.06309567 6.17317421 4.11693938 11.12369336 4.0625 16.375 C4.05798828 17.20644531 4.05347656 18.03789063 4.04882812 18.89453125 C4.03713164 20.92971897 4.01919935 22.96486923 4 25 C3.34 25 2.68 25 2 25 C1.93941406 24.09636719 1.87882813 23.19273437 1.81640625 22.26171875 C1.73261719 21.08222656 1.64882813 19.90273438 1.5625 18.6875 C1.48128906 17.51574219 1.40007813 16.34398437 1.31640625 15.13671875 C1.1132629 11.97409042 1.1132629 11.97409042 0 9 C-0.06740865 7.43881572 -0.08514456 5.8749748 -0.0625 4.3125 C-0.05347656 3.50425781 -0.04445313 2.69601562 -0.03515625 1.86328125 C-0.02355469 1.24839844 -0.01195312 0.63351562 0 0 Z " fill="#DEDEDE" transform="translate(596,575)"/>
<path d="M0 0 C1.98 0.66 3.96 1.32 6 2 C6.33 8.27 6.66 14.54 7 21 C9.97 21.33 12.94 21.66 16 22 C14 24 14 24 11.8359375 24.1953125 C11.02382813 24.17210937 10.21171875 24.14890625 9.375 24.125 C8.55773437 24.10695313 7.74046875 24.08890625 6.8984375 24.0703125 C6.27195312 24.04710937 5.64546875 24.02390625 5 24 C4.09586327 20.16275828 3.89423102 16.62497726 3.9375 12.6875 C3.94652344 11.61886719 3.95554687 10.55023438 3.96484375 9.44921875 C3.98224609 8.23685547 3.98224609 8.23685547 4 7 C2.68 6.34 1.36 5.68 0 5 C0 3.35 0 1.7 0 0 Z " fill="#F6F5F6" transform="translate(480,432)"/>
<path d="M0 0 C2.29160319 -0.02692484 4.58329546 -0.04636124 6.875 -0.0625 C8.15117187 -0.07410156 9.42734375 -0.08570313 10.7421875 -0.09765625 C14 0 14 0 16 1 C15.34 2.32 14.68 3.64 14 5 C12.41906283 5.1357675 10.83473048 5.23234745 9.25 5.3125 C7.92742187 5.39951172 7.92742187 5.39951172 6.578125 5.48828125 C4 5 4 5 1.671875 2.48046875 C1.12015625 1.66191406 0.5684375 0.84335937 0 0 Z " fill="#D8D6D5" transform="translate(495,555)"/>
<path d="M0 0 C17.82 0.33 35.64 0.66 54 1 C54 1.33 54 1.66 54 2 C36.18 2.33 18.36 2.66 0 3 C0 2.01 0 1.02 0 0 Z " fill="#D7D4E0" transform="translate(618,467)"/>
<path d="M0 0 C0.33 0 0.66 0 1 0 C1.33 2.31 1.66 4.62 2 7 C2.66 7 3.32 7 4 7 C4.33 10.3 4.66 13.6 5 17 C4.34 17 3.68 17 3 17 C3 17.66 3 18.32 3 19 C3.66 19.33 4.32 19.66 5 20 C3.35 20.33 1.7 20.66 0 21 C0 14.07 0 7.14 0 0 Z " fill="#C2C9D2" transform="translate(593,464)"/>
<path d="M0 0 C2.7294586 0.14143832 5.45848123 0.28799529 8.1875 0.4375 C8.95642578 0.47681641 9.72535156 0.51613281 10.51757812 0.55664062 C14.43251075 0.77507034 18.17120688 1.08692108 22 2 C22 2.99 22 3.98 22 5 C19.08115472 4.93994146 16.16738361 4.85291384 13.25 4.75 C12.425 4.73582031 11.6 4.72164063 10.75 4.70703125 C4.57702246 4.45812087 4.57702246 4.45812087 1.421875 1.953125 C0.71804688 0.98632812 0.71804688 0.98632812 0 0 Z " fill="#D9DAD8" transform="translate(354,467)"/>
<path d="M0 0 C0.66 0 1.32 0 2 0 C2.66 2.64 3.32 5.28 4 8 C3.01 8.33 2.02 8.66 1 9 C1 7.35 1 5.7 1 4 C-6.92 4 -14.84 4 -23 4 C-23 3.67 -23 3.34 -23 3 C-17.98391475 1.9823597 -13.21391694 1.88143566 -8.125 1.9375 C-7.34125 1.94201172 -6.5575 1.94652344 -5.75 1.95117188 C-3.83329986 1.96285907 -1.91663952 1.98079092 0 2 C0 1.34 0 0.68 0 0 Z " fill="#CED7E7" transform="translate(593,354)"/>
<path d="M0 0 C1.32 0.33 2.64 0.66 4 1 C4.03738281 2.26457031 4.07476563 3.52914063 4.11328125 4.83203125 C4.17893833 6.4922173 4.24538576 8.15237222 4.3125 9.8125 C4.33505859 10.64587891 4.35761719 11.47925781 4.38085938 12.33789062 C4.41630859 13.14033203 4.45175781 13.94277344 4.48828125 14.76953125 C4.51446533 15.50792236 4.54064941 16.24631348 4.56762695 17.00708008 C5.10437993 19.48111426 6.17691227 20.31031633 8 22 C8 22.66 8 23.32 8 24 C5.36 24 2.72 24 0 24 C0 22.68 0 21.36 0 20 C0.66 19.67 1.32 19.34 2 19 C2.05423638 17.08364783 2.09289963 15.16685075 2.125 13.25 C2.15980469 11.64898437 2.15980469 11.64898437 2.1953125 10.015625 C2.00133212 7.02056789 1.41937493 5.57052152 0 3 C0 2.01 0 1.02 0 0 Z " fill="#E4E6E4" transform="translate(596,461)"/>
<path d="M0 0 C0.33 0.99 0.66 1.98 1 3 C-1 5 -1 5 -3.6015625 5.1953125 C-4.59929688 5.17210937 -5.59703125 5.14890625 -6.625 5.125 C-8.12933594 5.09792969 -8.12933594 5.09792969 -9.6640625 5.0703125 C-10.43492187 5.04710937 -11.20578125 5.02390625 -12 5 C-11.67 4.01 -11.34 3.02 -11 2 C-15.29 2 -19.58 2 -24 2 C-24 1.67 -24 1.34 -24 1 C-16.08 0.67 -8.16 0.34 0 0 Z " fill="#C3C9D2" transform="translate(551,384)"/>
<path d="M0 0 C0.33 0 0.66 0 1 0 C1 5.94 1 11.88 1 18 C1.66 18 2.32 18 3 18 C3 19.32 3 20.64 3 22 C1.02 22 -0.96 22 -3 22 C-3 20.35 -3 18.7 -3 17 C-2.34 17 -1.68 17 -1 17 C-1.01160156 15.94039063 -1.02320313 14.88078125 -1.03515625 13.7890625 C-1.04453476 12.40104342 -1.05363489 11.01302245 -1.0625 9.625 C-1.07506836 8.57699219 -1.07506836 8.57699219 -1.08789062 7.5078125 C-1.11328125 2.2265625 -1.11328125 2.2265625 0 0 Z " fill="#D9D9DA" transform="translate(463,335)"/>
<path d="M0 0 C1.32 0.33 2.64 0.66 4 1 C3 4 3 4 2 5 C1.83989519 7.73701178 1.74053172 10.4516759 1.68359375 13.19140625 C1.66281265 14.01124496 1.64203156 14.83108368 1.62062073 15.67576599 C1.55503506 18.30458901 1.49619874 20.93351504 1.4375 23.5625 C1.39432333 25.34050561 1.35070933 27.11850065 1.30664062 28.89648438 C1.19934457 33.26421634 1.09810296 37.63205227 1 42 C0.67 42 0.34 42 0 42 C0 28.14 0 14.28 0 0 Z " fill="#9EAFC4" transform="translate(676,424)"/>
<path d="M0 0 C0.92553743 3.13850064 1.11664647 5.93680778 1.09765625 9.203125 C1.09443359 10.1828125 1.09121094 11.1625 1.08789062 12.171875 C1.07951172 13.18765625 1.07113281 14.2034375 1.0625 15.25 C1.05798828 16.28125 1.05347656 17.3125 1.04882812 18.375 C1.03706088 20.91672573 1.02062011 23.45833319 1 26 C-0.98 26.33 -2.96 26.66 -5 27 C-5 26.01 -5 25.02 -5 24 C-3.68 23.34 -2.36 22.68 -1 22 C-1.00523682 21.44014404 -1.01047363 20.88028809 -1.01586914 20.3034668 C-1.03666691 17.76482263 -1.04966904 15.22619641 -1.0625 12.6875 C-1.07087891 11.80642578 -1.07925781 10.92535156 -1.08789062 10.01757812 C-1.09111328 9.17001953 -1.09433594 8.32246094 -1.09765625 7.44921875 C-1.10289307 6.66893311 -1.10812988 5.88864746 -1.11352539 5.0847168 C-1 3 -1 3 0 0 Z " fill="#D9DDDC" transform="translate(639,309)"/>
<path d="M0 0 C1.65 0 3.3 0 5 0 C5 9.9 5 19.8 5 30 C4.67 30 4.34 30 4 30 C3.67 21.09 3.34 12.18 3 3 C2.01 2.67 1.02 2.34 0 2 C0 1.34 0 0.68 0 0 Z " fill="#FEF6F9" transform="translate(481,610)"/>
<path d="M0 0 C6.93 0.495 6.93 0.495 14 1 C14 1.33 14 1.66 14 2 C12.02 2 10.04 2 8 2 C8 2.66 8 3.32 8 4 C11.3 4 14.6 4 18 4 C18 4.33 18 4.66 18 5 C12.06 5 6.12 5 0 5 C0 3.35 0 1.7 0 0 Z " fill="#F6FAF7" transform="translate(466,352)"/>
<path d="M0 0 C11.55 0.33 23.1 0.66 35 1 C35 1.33 35 1.66 35 2 C34.14245117 2.02505615 33.28490234 2.0501123 32.40136719 2.07592773 C29.2106563 2.17123412 26.02009781 2.27045751 22.82958984 2.37231445 C21.45040622 2.4155455 20.07117315 2.45722866 18.69189453 2.49731445 C16.70593062 2.55530403 14.72014731 2.61937723 12.734375 2.68359375 C10.94338379 2.73858032 10.94338379 2.73858032 9.11621094 2.79467773 C6.57536745 2.96208994 4.4228576 3.26317859 2 4 C1.34 2.68 0.68 1.36 0 0 Z " fill="#D7D3D9" transform="translate(445,603)"/>
<path d="M0 0 C2.31 0 4.62 0 7 0 C7 0.33 7 0.66 7 1 C15.25 1.33 23.5 1.66 32 2 C32 2.33 32 2.66 32 3 C16.16 3.495 16.16 3.495 0 4 C0 2.68 0 1.36 0 0 Z " fill="#FEFAF4" transform="translate(512,617)"/>
<path d="M0 0 C8.91 0 17.82 0 27 0 C27 0.33 27 0.66 27 1 C26.38479492 1.01981934 25.76958984 1.03963867 25.13574219 1.06005859 C22.34007458 1.15549727 19.5451349 1.26509955 16.75 1.375 C15.29787109 1.42140625 15.29787109 1.42140625 13.81640625 1.46875 C12.88183594 1.50742187 11.94726562 1.54609375 10.984375 1.5859375 C10.12553711 1.6173584 9.26669922 1.6487793 8.38183594 1.68115234 C5.79527998 2.02740512 4.14790133 2.51387468 2 4 C1.18129815 7.56206661 1.18129815 7.56206661 1 11 C0.67 11 0.34 11 0 11 C0 7.37 0 3.74 0 0 Z " fill="#CED0D0" transform="translate(509,501)"/>
<path d="M0 0 C2.475 0.495 2.475 0.495 5 1 C6.0070238 6.03511899 5.97387813 9.23947038 4 14 C3.34 13.67 2.68 13.34 2 13 C2.04125 12.05125 2.0825 11.1025 2.125 10.125 C2.34973818 6.89755144 2.34973818 6.89755144 0 5 C-0.125 2.375 -0.125 2.375 0 0 Z " fill="#E5E5E3" transform="translate(730,447)"/>
<path d="M0 0 C0 2.64 0 5.28 0 8 C-2.31 7.67 -4.62 7.34 -7 7 C-6.625 4.0625 -6.625 4.0625 -6 1 C-4 0 -4 0 0 0 Z " fill="#DADCDD" transform="translate(527,343)"/>
<path d="M0 0 C3.625 0.375 3.625 0.375 5.5625 2.75 C6.625 5.375 6.625 5.375 6.625 7.375 C4.645 7.375 2.665 7.375 0.625 7.375 C0.955 6.385 1.285 5.395 1.625 4.375 C0.635 4.375 -0.355 4.375 -1.375 4.375 C-1.375 3.715 -1.375 3.055 -1.375 2.375 C-2.365 2.045 -3.355 1.715 -4.375 1.375 C-3.375 0.375 -3.375 0.375 0 0 Z " fill="#F0F1F2" transform="translate(396.375,600.625)"/>
<path d="M0 0 C1.32 0.33 2.64 0.66 4 1 C6.33333333 15 6.33333333 15 3 20 C1.40587716 16.81175432 1.89825265 13.37103338 1.9375 9.875 C1.94201172 9.12089844 1.94652344 8.36679687 1.95117188 7.58984375 C1.96296501 5.72652873 1.98090058 3.86325445 2 2 C1.34 2 0.68 2 0 2 C0 1.34 0 0.68 0 0 Z " fill="#E0DEDD" transform="translate(553,484)"/>
<path d="M0 0 C1.65 0 3.3 0 5 0 C5 2.64 5 5.28 5 8 C3.0625 8.5625 3.0625 8.5625 1 9 C0 8 0 8 -0.09765625 6.15234375 C-0.06510417 4.1015625 -0.03255208 2.05078125 0 0 Z " fill="#DADADA" transform="translate(569,288)"/>
<path d="M0 0 C1.32 0 2.64 0 4 0 C5.25664978 2.90600261 6 4.79604584 6 8 C5.34 8 4.68 8 4 8 C3.67 8.66 3.34 9.32 3 10 C2.01 9.34 1.02 8.68 0 8 C-0.40843923 5.28796348 -0.13336867 2.7562858 0 0 Z " fill="#F4F6F4" transform="translate(506,576)"/>
<path d="M0 0 C6.75 -0.125 6.75 -0.125 9 1 C9 1.99 9 2.98 9 4 C9.66 4.33 10.32 4.66 11 5 C2.42857143 5.14285714 2.42857143 5.14285714 -1 4 C-0.67 2.68 -0.34 1.36 0 0 Z " fill="#EDEDED" transform="translate(663,554)"/>
<path d="M0 0 C1.5 1.1875 1.5 1.1875 3 3 C3.1875 5.6875 3.1875 5.6875 3 8 C3.66 8 4.32 8 5 8 C5 11.63 5 15.26 5 19 C4.67 19 4.34 19 4 19 C3.566875 17.39125 3.566875 17.39125 3.125 15.75 C2.22035586 12.20663406 2.22035586 12.20663406 0.875 10.0625 C-0.52981522 6.75114983 -0.11901139 3.57034178 0 0 Z " fill="#E9E8E9" transform="translate(723,400)"/>
<path d="M0 0 C2.31 0 4.62 0 7 0 C7.05383848 2.45862401 7.09359038 4.9160755 7.125 7.375 C7.14175781 8.07367188 7.15851562 8.77234375 7.17578125 9.4921875 C7.19344267 11.32897486 7.10303261 13.16601963 7 15 C6.34 15.66 5.68 16.32 5 17 C5 12.38 5 7.76 5 3 C3.35 3 1.7 3 0 3 C0 2.01 0 1.02 0 0 Z " fill="#EEF2EF" transform="translate(633,482)"/>
<path d="M0 0 C5.41798672 0.69165788 10.6822785 1.75799248 16 3 C16 3.33 16 3.66 16 4 C11.38 4 6.76 4 2 4 C1.34 2.68 0.68 1.36 0 0 Z " fill="#D9D7D8" transform="translate(400,601)"/>
<path d="M0 0 C0.33 1.32 0.66 2.64 1 4 C0.34 4 -0.32 4 -1 4 C-1 4.66 -1 5.32 -1 6 C-2.65 6.33 -4.3 6.66 -6 7 C-6.33 6.34 -6.66 5.68 -7 5 C-8.64363134 4.27840576 -10.31050386 3.60648579 -12 3 C-12 2.67 -12 2.34 -12 2 C-8.04 2 -4.08 2 0 2 C0 1.34 0 0.68 0 0 Z " fill="#D4D6D6" transform="translate(687,552)"/>
<path d="M0 0 C0.66 0.66 1.32 1.32 2 2 C2.66 1.34 3.32 0.68 4 0 C4.36275695 4.47400242 4.36275695 4.47400242 2.75 6.8125 C1 8 1 8 -3 8 C-2.74438677 5.6568787 -2.40729228 3.32156597 -2 1 C-1.34 0.67 -0.68 0.34 0 0 Z " fill="#F7FAF7" transform="translate(556,520)"/>
<path d="M0 0 C2.64 0.66 5.28 1.32 8 2 C8.33 3.65 8.66 5.3 9 7 C6.69 7 4.38 7 2 7 C1.67 6.01 1.34 5.02 1 4 C0.34 3.67 -0.32 3.34 -1 3 C-0.67 2.01 -0.34 1.02 0 0 Z " fill="#EFF1EF" transform="translate(570,633)"/>
<path d="M0 0 C2.31 0 4.62 0 7 0 C7 0.99 7 1.98 7 3 C7.33 3.66 7.66 4.32 8 5 C5.03 5 2.06 5 -1 5 C-0.67 3.35 -0.34 1.7 0 0 Z " fill="#F0F3F2" transform="translate(393,339)"/>
<path d="M0 0 C1.875 0.3125 1.875 0.3125 4 1 C4.66 1.99 5.32 2.98 6 4 C6.99 4.66 7.98 5.32 9 6 C6.03 6 3.06 6 0 6 C0 5.34 0 4.68 0 4 C-0.66 4 -1.32 4 -2 4 C-1.34 2.68 -0.68 1.36 0 0 Z " fill="#E5E6E4" transform="translate(626,594)"/>
<path d="M0 0 C-0.99 0.495 -0.99 0.495 -2 1 C-2 1.66 -2 2.32 -2 3 C-1.34 3 -0.68 3 0 3 C0 4.32 0 5.64 0 7 C-0.99 7 -1.98 7 -3 7 C-3 5.02 -3 3.04 -3 1 C-7.29 1 -11.58 1 -16 1 C-16 0.67 -16 0.34 -16 0 C-13.89651926 -0.19504458 -11.79217415 -0.38078496 -9.6875 -0.5625 C-8.51574219 -0.66691406 -7.34398437 -0.77132812 -6.13671875 -0.87890625 C-3 -1 -3 -1 0 0 Z " fill="#F2F7F7" transform="translate(688,569)"/>
<path d="M0 0 C2.93087534 4.03809491 1.79254053 8.12325357 1.125 12.75 C0.96837891 13.93916016 0.96837891 13.93916016 0.80859375 15.15234375 C0.5500661 17.10305241 0.27649734 19.05175719 0 21 C-0.33 21 -0.66 21 -1 21 C-1.0269501 18.06243881 -1.04681474 15.12512445 -1.0625 12.1875 C-1.07087891 11.35412109 -1.07925781 10.52074219 -1.08789062 9.66210938 C-1.09111328 8.85966797 -1.09433594 8.05722656 -1.09765625 7.23046875 C-1.10289307 6.49207764 -1.10812988 5.75368652 -1.11352539 4.99291992 C-1 3 -1 3 0 0 Z " fill="#DBDFDE" transform="translate(463,445)"/>
<path d="M0 0 C2.31 0.33 4.62 0.66 7 1 C7.33 1.99 7.66 2.98 8 4 C4.18510326 5.46726798 1.70988378 4.43336419 -2 3 C-1.34 2.01 -0.68 1.02 0 0 Z " fill="#DFDFDD" transform="translate(400,339)"/>
<path d="M0 0 C1.32 1.65 2.64 3.3 4 5 C4 4.01 4 3.02 4 2 C4.66 2 5.32 2 6 2 C6.33 3.98 6.66 5.96 7 8 C4 9 4 9 1.8125 8.0625 C1.214375 7.711875 0.61625 7.36125 0 7 C0 4.69 0 2.38 0 0 Z " fill="#EBEFEE" transform="translate(553,477)"/>
<path d="M0 0 C0.33 0 0.66 0 1 0 C1.08096803 1.45742463 1.13917774 2.91612807 1.1875 4.375 C1.22230469 5.18710937 1.25710938 5.99921875 1.29296875 6.8359375 C1.19628906 7.55007813 1.09960938 8.26421875 1 9 C0.01 9.66 -0.98 10.32 -2 11 C-2.66 8.36 -3.32 5.72 -4 3 C-3.34 3 -2.68 3 -2 3 C-1.67 2.34 -1.34 1.68 -1 1 C-0.67 0.67 -0.34 0.34 0 0 Z " fill="#EEEEED" transform="translate(599,359)"/>
<path d="M0 0 C0.33 0 0.66 0 1 0 C1 3.63 1 7.26 1 11 C2.98 11 4.96 11 7 11 C7 11.99 7 12.98 7 14 C4.69 13.67 2.38 13.34 0 13 C-1.29676812 8.38926889 -0.71109139 4.66159911 0 0 Z " fill="#F1F5F7" transform="translate(611,456)"/>
<path d="M0 0 C0 0.99 0 1.98 0 3 C-2.75078884 3.91692961 -4.35948913 4.10886083 -7.1875 4.0625 C-9.0746875 4.0315625 -9.0746875 4.0315625 -11 4 C-8.6870518 1.6870518 -7.52095125 1.50419025 -4.375 0.875 C-3.55773437 0.70742188 -2.74046875 0.53984375 -1.8984375 0.3671875 C-1.27195312 0.24601563 -0.64546875 0.12484375 0 0 Z " fill="#DDDEE0" transform="translate(510,556)"/>
<path d="M0 0 C0.66 0 1.32 0 2 0 C2.33 1.65 2.66 3.3 3 5 C4.32 5.33 5.64 5.66 7 6 C6.67 7.65 6.34 9.3 6 11 C2.1334716 7.777893 1.11940982 4.85077588 0 0 Z " fill="#F9F8F5" transform="translate(552,472)"/>
<path d="M0 0 C0.66 0 1.32 0 2 0 C2.33 1.65 2.66 3.3 3 5 C5.97 5.33 8.94 5.66 12 6 C10 8 10 8 7.8359375 8.1953125 C6.61777344 8.16050781 6.61777344 8.16050781 5.375 8.125 C4.55773437 8.10695313 3.74046875 8.08890625 2.8984375 8.0703125 C2.27195312 8.04710937 1.64546875 8.02390625 1 8 C0.67 5.36 0.34 2.72 0 0 Z " fill="#EFF2EE" transform="translate(484,448)"/>
<path d="M0 0 C1.32 0.33 2.64 0.66 4 1 C3 4 3 4 2 5 C1.76712992 6.68183948 1.58735834 8.3712416 1.4375 10.0625 C1.35371094 10.98160156 1.26992188 11.90070313 1.18359375 12.84765625 C1.12300781 13.55792969 1.06242188 14.26820313 1 15 C0.67 15 0.34 15 0 15 C0 10.05 0 5.1 0 0 Z " fill="#B0BBC7" transform="translate(676,424)"/>
<path d="M0 0 C0.99 0 1.98 0 3 0 C3 0.99 3 1.98 3 3 C4.65 3.33 6.3 3.66 8 4 C7.67 4.66 7.34 5.32 7 6 C4.6875 6.25 4.6875 6.25 2 6 C0.1875 4 0.1875 4 -1 2 C-0.67 1.34 -0.34 0.68 0 0 Z " fill="#EAE8EA" transform="translate(531,386)"/>
<path d="M0 0 C0.99 0 1.98 0 3 0 C3 0.99 3 1.98 3 3 C3.99 3.33 4.98 3.66 6 4 C5.67 5.65 5.34 7.3 5 9 C4.34 8.67 3.68 8.34 3 8 C3 7.34 3 6.68 3 6 C2.01 6 1.02 6 0 6 C0 4.02 0 2.04 0 0 Z " fill="#F0EDEF" transform="translate(594,266)"/>
<path d="M0 0 C-0.66 1.32 -1.32 2.64 -2 4 C-1.34 4.33 -0.68 4.66 0 5 C-1.32 5.33 -2.64 5.66 -4 6 C-4 5.01 -4 4.02 -4 3 C-4.99 3 -5.98 3 -7 3 C-7 2.34 -7 1.68 -7 1 C-4.53721199 -0.231394 -2.7204945 -0.07159196 0 0 Z " fill="#F2F3F2" transform="translate(626,594)"/>
<path d="M0 0 C6.93 0.495 6.93 0.495 14 1 C14 1.33 14 1.66 14 2 C12.41693353 2.16918268 10.83353281 2.33523936 9.25 2.5 C8.36828125 2.5928125 7.4865625 2.685625 6.578125 2.78125 C4 3 4 3 0 3 C0 2.01 0 1.02 0 0 Z " fill="#DCDBDC" transform="translate(578,635)"/>
<path d="M0 0 C1.4540625 0.0309375 1.4540625 0.0309375 2.9375 0.0625 C3.2675 2.0425 3.5975 4.0225 3.9375 6.0625 C2.9475 4.7425 1.9575 3.4225 0.9375 2.0625 C0.6075 3.0525 0.2775 4.0425 -0.0625 5.0625 C-0.7225 5.0625 -1.3825 5.0625 -2.0625 5.0625 C-2.7225 3.7425 -3.3825 2.4225 -4.0625 1.0625 C-3.0625 0.0625 -3.0625 0.0625 0 0 Z " fill="#E6E6E7" transform="translate(491.0625,553.9375)"/>
<path d="M0 0 C2.475 0.99 2.475 0.99 5 2 C4.67 3.65 4.34 5.3 4 7 C2.35 6.67 0.7 6.34 -1 6 C-0.67 4.02 -0.34 2.04 0 0 Z " fill="#EBEEEC" transform="translate(554,526)"/>
<path d="M0 0 C0.33 1.32 0.66 2.64 1 4 C2.32 4 3.64 4 5 4 C5 4.99 5 5.98 5 7 C3.35 7.33 1.7 7.66 0 8 C-0.79953138 4.71303767 -1.09658936 3.28976808 0 0 Z " fill="#F4F2F1" transform="translate(419,355)"/>
<path d="M0 0 C0.598125 0.20625 1.19625 0.4125 1.8125 0.625 C1.4825 1.945 1.1525 3.265 0.8125 4.625 C-1.1675 4.625 -3.1475 4.625 -5.1875 4.625 C-5.1875 3.635 -5.1875 2.645 -5.1875 1.625 C-2.1875 -0.375 -2.1875 -0.375 0 0 Z " fill="#EDEDEC" transform="translate(580.1875,330.375)"/>
<path d="M0 0 C2 2 2 2 2.25 5.5 C2 9 2 9 0 11 C-0.19406478 9.35492782 -0.38007935 7.70890406 -0.5625 6.0625 C-0.66691406 5.14597656 -0.77132813 4.22945313 -0.87890625 3.28515625 C-0.91886719 2.53105469 -0.95882813 1.77695312 -1 1 C-0.67 0.67 -0.34 0.34 0 0 Z " fill="#E6E3E5" transform="translate(510,278)"/>
<path d="M0 0 C0 2.97 0 5.94 0 9 C-0.99 9.495 -0.99 9.495 -2 10 C-2.66 7.03 -3.32 4.06 -4 1 C-1 0 -1 0 0 0 Z " fill="#E9E7E7" transform="translate(620,556)"/>
<path d="M0 0 C1.485 0.99 1.485 0.99 3 2 C2.39816251 4.02045442 1.72693904 6.02111039 1 8 C0.01 8.495 0.01 8.495 -1 9 C-1.125 2.25 -1.125 2.25 0 0 Z " fill="#EEEEEF" transform="translate(461,316)"/>
<path d="M0 0 C2.31 0 4.62 0 7 0 C6.67 0.99 6.34 1.98 6 3 C4.02 3.33 2.04 3.66 0 4 C0 2.68 0 1.36 0 0 Z " fill="#EFF0F2" transform="translate(512,617)"/>
<path d="M0 0 C0.33 1.65 0.66 3.3 1 5 C-0.32 4.67 -1.64 4.34 -3 4 C-3 3.01 -3 2.02 -3 1 C-3.99 0.67 -4.98 0.34 -6 0 C-3 -1 -3 -1 0 0 Z " fill="#F5F5F5" transform="translate(488,555)"/>
<path d="M0 0 C6.875 2.75 6.875 2.75 8 5 C6.02 5 4.04 5 2 5 C1.34 3.35 0.68 1.7 0 0 Z " fill="#EDF0EF" transform="translate(350,466)"/>
<path d="M0 0 C0.33 1.98 0.66 3.96 1 6 C-0.32 6 -1.64 6 -3 6 C-3.66 4.35 -4.32 2.7 -5 1 C-3 0 -3 0 0 0 Z " fill="#F4F4F4" transform="translate(531,386)"/>
<path d="M0 0 C0.99 0 1.98 0 3 0 C6 4.22222222 6 4.22222222 6 7 C3.00675737 5.9024777 2.15389099 5.32317108 0.75 2.375 C0.5025 1.59125 0.255 0.8075 0 0 Z " fill="#E8E8E9" transform="translate(397,601)"/>
<path d="M0 0 C0.66 0.33 1.32 0.66 2 1 C1.67 2.98 1.34 4.96 1 7 C0.01 7.33 -0.98 7.66 -2 8 C-2.20086443 4.28400809 -2.1519437 3.22791555 0 0 Z " fill="#F1F2F1" transform="translate(462,489)"/>
<path d="M0 0 C6.0546875 -0.1953125 6.0546875 -0.1953125 8 0 C8.66 0.66 9.32 1.32 10 2 C7.50935112 2.68707555 5.62113708 3 3 3 C3 2.34 3 1.68 3 1 C2.01 0.67 1.02 0.34 0 0 Z " fill="#E9EBE9" transform="translate(440,381)"/>
<path d="M0 0 C-0.33 1.32 -0.66 2.64 -1 4 C-3.97 3.505 -3.97 3.505 -7 3 C-7 2.34 -7 1.68 -7 1 C-3.375 -1.125 -3.375 -1.125 0 0 Z " fill="#E5E7E7" transform="translate(527,347)"/>
<path d="M0 0 C1.65 0 3.3 0 5 0 C5 2.31 5 4.62 5 7 C3.29115995 5.37660195 1.62553283 3.70680947 0 2 C0 1.34 0 0.68 0 0 Z " fill="#EDEAEA" transform="translate(481,610)"/>
<path d="M0 0 C0.99 0.33 1.98 0.66 3 1 C3.33 1.99 3.66 2.98 4 4 C2.5625 6.1875 2.5625 6.1875 1 8 C0.67 5.36 0.34 2.72 0 0 Z " fill="#383838" transform="translate(364,768)"/>
<path d="M0 0 C0.94875 0.04125 1.8975 0.0825 2.875 0.125 C2.875 1.115 2.875 2.105 2.875 3.125 C0.235 2.795 -2.405 2.465 -5.125 2.125 C-3.125 0.125 -3.125 0.125 0 0 Z " fill="#DCDCDE" transform="translate(496.125,644.875)"/>
<path d="M0 0 C2.97 0.495 2.97 0.495 6 1 C5.01 2.485 5.01 2.485 4 4 C2.35 3.67 0.7 3.34 -1 3 C-0.67 2.01 -0.34 1.02 0 0 Z " fill="#F2F1EE" transform="translate(441,603)"/>
<path d="M0 0 C2.475 0.495 2.475 0.495 5 1 C5.33 1.99 5.66 2.98 6 4 C4.35 3.67 2.7 3.34 1 3 C0.67 2.01 0.34 1.02 0 0 Z " fill="#DDDEDE" transform="translate(400,601)"/>
<path d="M0 0 C0.66 0.66 1.32 1.32 2 2 C2.66 1.34 3.32 0.68 4 0 C4 1.98 4 3.96 4 6 C3.01 6 2.02 6 1 6 C0 5 0 5 -0.0625 2.4375 C-0.041875 1.633125 -0.02125 0.82875 0 0 Z " fill="#F3F4F2" transform="translate(596,456)"/>
<path d="M0 0 C1 2 2 4 3 6 C0.03 5.505 0.03 5.505 -3 5 C-2.67 3.68 -2.34 2.36 -2 1 C-1.67 1.33 -1.34 1.66 -1 2 C-0.67 1.34 -0.34 0.68 0 0 Z " fill="#F2F5F4" transform="translate(733,442)"/>
<path d="M0 0 C0.66 0 1.32 0 2 0 C2 2.64 2 5.28 2 8 C0.68 7.34 -0.64 6.68 -2 6 C-1.34 4.02 -0.68 2.04 0 0 Z " fill="#DFE0E4" transform="translate(646,416)"/>
<path d="M0 0 C2.475 0.495 2.475 0.495 5 1 C4.67 2.32 4.34 3.64 4 5 C2.68 5 1.36 5 0 5 C0 3.35 0 1.7 0 0 Z " fill="#ECEDEA" transform="translate(466,352)"/>
<path d="M0 0 C2.625 0.9375 2.625 0.9375 5 2 C1.25 5 1.25 5 -1 5 C-1.33 3.68 -1.66 2.36 -2 1 C-1.34 0.67 -0.68 0.34 0 0 Z " fill="#F1F1F1" transform="translate(522,349)"/>
<path d="M0 0 C1.32 0.33 2.64 0.66 4 1 C4 2.32 4 3.64 4 5 C2.68 4.67 1.36 4.34 0 4 C0 2.68 0 1.36 0 0 Z " fill="#3A3A3A" transform="translate(347,734)"/>
<path d="M0 0 C1.65 0 3.3 0 5 0 C5 1.32 5 2.64 5 4 C3.0625 3.6875 3.0625 3.6875 1 3 C0.67 2.01 0.34 1.02 0 0 Z " fill="#E3E2DF" transform="translate(445,603)"/>
<path d="M0 0 C2.875 -0.125 2.875 -0.125 6 0 C6.66 0.66 7.32 1.32 8 2 C7.34 2 6.68 2 6 2 C6 2.66 6 3.32 6 4 C3.53199953 2.84826645 1.95216435 1.95216435 0 0 Z " fill="#E1E3E1" transform="translate(354,467)"/>
<path d="M0 0 C1.32 0.33 2.64 0.66 4 1 C3.67 2.98 3.34 4.96 3 7 C0 3.375 0 3.375 0 0 Z " fill="#E7E6E7" transform="translate(481,429)"/>
</svg>
